<svg width="22" height="22" viewBox="0 0 22 22" fill="none" xmlns="http://www.w3.org/2000/svg">
<path d="M11.0771 21.8272C11.4914 21.8272 11.8271 21.4914 11.8271 21.0772L11.8271 2.07721C11.8271 2.04033 11.8473 2.00556 11.8809 1.9903L12.3877 1.75983C12.7647 1.5884 12.9312 1.14373 12.7598 0.766663C12.5883 0.38978 12.1436 0.223232 11.7666 0.394592L0.766602 5.39459C0.389779 5.56612 0.223185 6.01079 0.394531 6.38776C0.515955 6.65473 0.77444 6.81657 1.04883 6.82721C1.19709 6.83292 1.27186 6.83528 1.2998 6.86432C1.3276 6.8934 1.32715 6.95166 1.32715 7.06744L1.32715 17.129C1.32712 18.0274 1.32726 18.7774 1.40723 19.3721C1.49165 19.9997 1.67751 20.5662 2.13281 21.0215C2.58828 21.477 3.15541 21.6627 3.7832 21.7471C4.37793 21.8271 5.12707 21.8272 6.02539 21.8272H11.0771ZM6.07715 11.0772C5.52486 11.0772 5.07715 10.6295 5.07715 10.0772C5.07715 9.52492 5.52486 9.07721 6.07715 9.07721H7.07715C7.62943 9.07721 8.07715 9.52492 8.07715 10.0772C8.07715 10.6295 7.62943 11.0772 7.07715 11.0772H6.07715ZM6.07715 15.0772C5.52486 15.0772 5.07715 14.6295 5.07715 14.0772C5.07715 13.5249 5.52486 13.0772 6.07715 13.0772H7.07715C7.62943 13.0772 8.07715 13.5249 8.07715 14.0772C8.07715 14.6295 7.62943 15.0772 7.07715 15.0772H6.07715Z" fill="white"/>
<path d="M15.1768 21.8267C15.3653 21.8267 15.46 21.8266 15.5186 21.7681C15.5771 21.7095 15.5771 21.6148 15.5771 21.4263V18.8267C15.5771 18.2744 16.0249 17.8267 16.5771 17.8267C17.1294 17.8267 17.5771 18.2744 17.5771 18.8267V21.3931C17.5771 21.5904 17.5775 21.6892 17.6416 21.7485C17.7058 21.8079 17.8017 21.8005 17.9932 21.7856C18.1253 21.7754 18.2514 21.7627 18.3711 21.7466C18.9988 21.6622 19.5651 21.4763 20.0205 21.021C20.4759 20.5656 20.6617 19.9992 20.7461 19.3716C20.8261 18.7768 20.8262 18.0269 20.8262 17.1284V12.0679C20.8262 11.9521 20.8267 11.8938 20.8545 11.8647C20.8824 11.8357 20.9564 11.8324 21.1045 11.8267C21.369 11.8164 21.6202 11.6661 21.7471 11.4126C21.9323 11.0421 21.7826 10.591 21.4121 10.4058L17.8262 8.61377V6.07666C17.826 5.66261 17.4903 5.32666 17.0762 5.32666C16.6622 5.32681 16.3264 5.6627 16.3262 6.07666V7.86377L13.6563 6.52783C13.3969 6.39816 13.2667 6.33359 13.1719 6.39209C13.077 6.45071 13.0771 6.59615 13.0771 6.88623L13.0771 21.0767C13.0771 21.1354 13.0743 21.194 13.0693 21.2515C13.0436 21.5482 13.0304 21.6974 13.0898 21.7622C13.1493 21.827 13.2752 21.8267 13.5254 21.8267H15.1768ZM16.0771 13.8267C15.6629 13.8267 15.3271 13.4909 15.3271 13.0767C15.3273 12.6626 15.6631 12.3267 16.0771 12.3267H17.0771C17.4912 12.3267 17.827 12.6626 17.8271 13.0767C17.8271 13.4909 17.4914 13.8267 17.0771 13.8267H16.0771Z" fill="white"/>
</svg>
