<svg width="16" height="15" viewBox="0 0 16 15" fill="none" xmlns="http://www.w3.org/2000/svg">
<path d="M0.833008 7.50001C0.833008 11.4581 4.04163 14.6667 7.99967 14.6667C11.9577 14.6667 15.1663 11.4581 15.1663 7.50001C15.1663 6.12879 14.7812 4.84752 14.1133 3.75844C13.9963 3.56768 13.9378 3.4723 13.838 3.46315C13.7381 3.45401 13.6603 3.54048 13.5047 3.71342L8.4952 9.27933C8.37285 9.41527 8.20002 9.49498 8.01719 9.49979C7.83437 9.50459 7.65759 9.43408 7.52827 9.30475L5.19494 6.97142C4.93459 6.71107 4.93459 6.28896 5.19494 6.02861C5.45529 5.76826 5.8774 5.76826 6.13775 6.02861L7.6761 7.56697C7.81599 7.70685 7.88593 7.77679 7.97184 7.77453C8.05775 7.77228 8.12392 7.69876 8.25626 7.55171L12.6998 2.61455C12.8236 2.47698 12.8856 2.40819 12.8802 2.32421C12.8749 2.24024 12.8073 2.18212 12.6723 2.06589C11.4176 0.986073 9.78487 0.333344 7.99967 0.333344C4.04163 0.333344 0.833008 3.54197 0.833008 7.50001Z" fill="#5ADBFF"/>
</svg>
