<svg width="16" height="16" viewBox="0 0 16 16" fill="none" xmlns="http://www.w3.org/2000/svg">
<g clip-path="url(#clip0_340_522)">
<path d="M0.833984 8.00004C0.833984 11.9581 4.04261 15.1667 8.00065 15.1667C11.9587 15.1667 15.1673 11.9581 15.1673 8.00004C15.1673 6.62882 14.7822 5.34755 14.1143 4.25847C13.9973 4.06771 13.9388 3.97233 13.8389 3.96318C13.7391 3.95404 13.6613 4.04051 13.5056 4.21345L8.49617 9.77936C8.37382 9.9153 8.201 9.99501 8.01817 9.99982C7.83534 10.0046 7.65857 9.93411 7.52925 9.80478L5.19591 7.47145C4.93556 7.2111 4.93556 6.78899 5.19591 6.52864C5.45626 6.26829 5.87837 6.26829 6.13872 6.52864L7.67708 8.067C7.81696 8.20688 7.8869 8.27682 7.97281 8.27457C8.05872 8.27231 8.12489 8.19879 8.25723 8.05174L12.7008 3.11459C12.8246 2.97701 12.8865 2.90822 12.8812 2.82424C12.8758 2.74027 12.8083 2.68215 12.6733 2.56592C11.4186 1.4861 9.78585 0.833374 8.00065 0.833374C4.04261 0.833374 0.833984 4.042 0.833984 8.00004Z" fill="#ED1C24"/>
</g>
<defs>
<clipPath id="clip0_340_522">
<rect width="16" height="16" fill="white"/>
</clipPath>
</defs>
</svg>
