<svg width="18" height="18" viewBox="0 0 18 18" fill="none" xmlns="http://www.w3.org/2000/svg">
<path d="M3.81175 8.80952C4.46054 9.87832 5.2686 10.8979 6.18563 11.8143C7.10187 12.7312 8.12142 13.5395 9.19 14.1883L11.8734 11.3094L17.062 14.2644C16.309 15.6626 14.5029 17.4506 12.2084 16.9884C11.124 16.7696 10.0539 16.405 8.75997 15.6626C7.45753 14.9153 6.2278 13.961 5.13523 12.8676C4.04184 11.775 3.08444 10.5422 2.3372 9.2398C1.5948 7.94582 1.2302 6.87576 1.01138 5.79141C0.549142 3.49685 2.3372 1.6908 3.73533 0.937744L6.69039 6.12637L3.81175 8.80952Z" fill="white"/>
<path fill-rule="evenodd" clip-rule="evenodd" d="M15.6209 7.37578C14.9267 4.97055 13.0294 3.0733 10.6241 2.37918L11.04 0.937988C13.9405 1.77501 16.2249 4.0594 17.0621 6.95983L15.6209 7.37578ZM12.0273 7.95174C11.65 7.06316 10.9369 6.35015 10.0483 5.97281L10.6346 4.59214C11.8809 5.12137 12.8787 6.11916 13.408 7.36543L12.0273 7.95174Z" fill="white"/>
</svg>
