<svg width="20" height="21" viewBox="0 0 20 21" fill="none" xmlns="http://www.w3.org/2000/svg">
<path d="M11.3481 17.9596C10.9867 18.298 10.5037 18.4872 10.0009 18.4872C9.49821 18.4872 9.01515 18.298 8.65374 17.9596C5.34418 14.8421 0.908969 11.3596 3.07189 6.30355C4.24136 3.56979 7.04862 1.8205 10.0009 1.8205C12.9532 1.8205 15.7605 3.56979 16.93 6.30355C19.0902 11.3532 14.6658 14.8529 11.3481 17.9596Z" stroke="#ED1C24" stroke-width="1.5"/>
<path d="M12.9168 9.32048C12.9168 10.9313 11.611 12.2371 10.0002 12.2371C8.38933 12.2371 7.0835 10.9313 7.0835 9.32048C7.0835 7.70964 8.38933 6.40381 10.0002 6.40381C11.611 6.40381 12.9168 7.70964 12.9168 9.32048Z" stroke="#ED1C24" stroke-width="1.5"/>
</svg>
