<svg width="36" height="34" viewBox="0 0 36 34" fill="none" xmlns="http://www.w3.org/2000/svg">
<path fill-rule="evenodd" clip-rule="evenodd" d="M15.9145 3.81975C16.001 3.67146 16.1917 3.62129 16.34 3.70775C16.4884 3.79421 16.5386 3.98476 16.4521 4.1332C16.1789 4.58747 14.4091 7.08119 13.1102 9.04224C12.4988 9.96542 11.9859 10.7629 11.8186 11.1834C11.7895 11.2637 11.7007 11.3051 11.6205 11.276C11.5401 11.2467 11.4988 11.158 11.5279 11.0777C11.6742 10.6353 12.134 9.77368 12.7219 8.79689C13.9296 6.79029 15.655 4.2794 15.9145 3.81975Z" fill="white" stroke="white" stroke-width="0.36"/>
<path fill-rule="evenodd" clip-rule="evenodd" d="M12.5895 2.49395C12.6432 2.33088 12.8193 2.24217 12.9824 2.29579C13.1454 2.34955 13.2343 2.52561 13.1805 2.68868C12.8928 3.52465 12.2684 5.45344 11.285 7.38821C11.082 7.78782 10.8642 8.18759 10.6283 8.5766C10.2712 9.16513 9.87534 9.72841 9.44899 10.2406C9.39643 10.3078 9.29906 10.3198 9.23186 10.2672C9.16451 10.2146 9.15257 10.1174 9.20513 10.0501C9.525 9.61238 9.81665 9.13869 10.091 8.65127C10.3632 8.16773 10.6148 7.67015 10.8462 7.17421C11.7502 5.23556 12.3278 3.32514 12.5895 2.49395Z" fill="white" stroke="white" stroke-width="0.36"/>
<path fill-rule="evenodd" clip-rule="evenodd" d="M8.96225 4.67546C9.02273 4.51477 9.20223 4.43339 9.36291 4.49387C9.52375 4.5542 9.60513 4.73385 9.54465 4.89453C9.3105 5.48574 8.8613 7.04344 8.26128 8.50347C8.12807 8.82738 7.98815 9.1465 7.83911 9.4483C7.58614 9.96022 7.31167 10.4224 7.02958 10.7884C6.98015 10.8582 6.88353 10.8746 6.81379 10.8253C6.7442 10.776 6.72762 10.6794 6.7769 10.6097C6.9797 10.2962 7.16502 9.91497 7.34512 9.50042C7.5064 9.12933 7.66021 8.7318 7.80566 8.32771C8.34028 6.84214 8.74885 5.27473 8.96225 4.67546Z" fill="white" stroke="white" stroke-width="0.36"/>
<path fill-rule="evenodd" clip-rule="evenodd" d="M5.94474 27.2952C7.93267 27.7662 9.59042 28.4578 10.3523 29.0609C10.5884 29.2477 10.7469 29.4335 10.8279 29.6018C10.9063 29.7647 10.9228 29.9208 10.8886 30.0652C10.8544 30.2098 10.7697 30.3419 10.6265 30.4523C10.4785 30.5662 10.2536 30.6612 9.95883 30.7223C9.00727 30.9195 7.21542 30.7939 5.22749 30.3231C3.23956 29.8521 1.58181 29.1605 0.819764 28.5574C0.583817 28.3706 0.425375 28.1846 0.344287 28.0165C0.265737 27.8536 0.24931 27.6975 0.283508 27.553C0.317855 27.4086 0.402527 27.2764 0.545738 27.166C0.693578 27.0521 0.918623 26.9571 1.21341 26.896C2.16496 26.6988 3.95681 26.8244 5.94474 27.2952ZM5.80123 27.9008C3.92605 27.4565 2.23739 27.3193 1.33959 27.5053C1.18264 27.5377 1.05422 27.5786 0.961482 27.6346C0.928031 27.6548 0.895775 27.668 0.889055 27.6965C0.882335 27.725 0.905183 27.7513 0.925941 27.7843C0.983733 27.8758 1.08035 27.9701 1.20594 28.0695C1.92483 28.6385 3.49552 29.2733 5.37085 29.7176C7.24618 30.1618 8.93484 30.2991 9.83249 30.113C9.98944 30.0804 10.118 30.0397 10.2108 29.9837C10.2441 29.9635 10.2763 29.9504 10.2832 29.9218C10.2899 29.8933 10.2669 29.867 10.2461 29.834C10.1883 29.7423 10.0919 29.6483 9.96614 29.5488C9.2474 28.9798 7.67656 28.3449 5.80123 27.9008Z" fill="white" stroke="white" stroke-width="0.36"/>
<path fill-rule="evenodd" clip-rule="evenodd" d="M16.0155 16.9663C16.8228 16.6544 19.716 15.7757 20.8405 18.677C21.0822 19.3009 21.1442 19.7882 21.0504 20.2017C20.9531 20.6307 20.6905 20.9924 20.2409 21.3406C19.4673 21.94 18.0865 22.523 16.0809 23.5555C14.3884 24.4269 13.4535 25.0168 12.9279 25.444C12.6189 25.6952 12.4651 25.8775 12.3842 26.0295C12.2932 26.2004 12.2883 26.3309 12.2432 26.4569C12.0871 26.894 11.0237 28.9271 10.9026 29.9454C10.8835 30.1066 10.7434 30.226 10.5813 30.2195C10.4189 30.213 10.289 30.0828 10.2827 29.9204C10.2811 29.8747 10.2475 29.8308 10.2066 29.7792C10.1309 29.6837 10.0195 29.5853 9.87924 29.4832C9.12227 28.9312 7.6022 28.3275 5.80094 27.9008C3.92576 27.4566 2.2371 27.3193 1.33931 27.5054C1.18236 27.5378 1.05393 27.5787 0.961194 27.6347C0.927743 27.6549 0.895487 27.668 0.888767 27.6966C0.851733 27.8525 0.702399 27.9549 0.543658 27.9331C0.384916 27.9113 0.268735 27.7724 0.275156 27.6123C0.285908 27.3459 0.405524 25.4001 1.74042 23.3735C2.3936 22.3818 2.38061 21.2332 2.29205 20.0441C2.19588 18.7525 2.00698 17.4137 2.3152 16.1481C2.62059 14.8948 3.29931 13.5721 3.96698 12.1868C4.6118 10.8492 5.24617 9.45099 5.48585 7.99394C5.74733 6.40369 6.16487 5.49036 6.75892 4.9901C7.32833 4.51059 8.07275 4.38589 9.05791 4.45653C9.19753 4.1595 9.49127 3.60622 9.93718 3.11447C10.5678 2.41887 11.4888 1.85081 12.6887 2.19487C12.8044 1.91323 13.0267 1.51675 13.4229 1.26169C13.8614 0.979296 14.5184 0.845045 15.4891 1.27931C16.4659 1.71626 16.7899 2.28074 16.8577 2.77219C16.9037 3.1061 16.8246 3.41806 16.7216 3.66312C17.0356 3.6779 17.4416 3.72315 17.835 3.84336C18.4275 4.02465 18.9826 4.37529 19.2245 4.99472C19.4664 5.61431 19.399 6.54526 18.6027 7.91658C16.94 10.7801 16.0162 14.0358 15.9157 15.879C15.8957 16.2467 15.908 16.5542 15.9586 16.7843C15.974 16.8537 15.9924 16.9148 16.0155 16.9663ZM0.975082 26.9572C1.0484 26.9342 1.12785 26.9137 1.21312 26.8961C2.16467 26.6989 3.95652 26.8244 5.94445 27.2953C7.84666 27.746 9.44647 28.3975 10.2459 28.9804C10.3225 29.0362 10.3921 29.0925 10.4552 29.1488C10.8005 28.0502 11.5271 26.6121 11.6572 26.2477C11.7113 26.0963 11.7257 25.9423 11.8349 25.7371C12.0776 25.2812 12.8126 24.5382 15.7961 23.0023C17.7531 21.9949 19.1049 21.4338 19.8598 20.8489C20.1746 20.605 20.3754 20.3643 20.4435 20.064C20.5154 19.7478 20.4452 19.3788 20.2603 18.9019C19.1735 16.098 16.0733 17.6156 16.0733 17.6156C15.9877 17.6569 15.888 17.6567 15.8024 17.615C15.6337 17.5331 15.4863 17.3619 15.397 17.0885C15.3032 16.8015 15.2656 16.3759 15.2944 15.8451C15.3985 13.9382 16.3445 10.5665 18.0647 7.60418C18.7184 6.4782 18.8436 5.72974 18.6448 5.22097C18.4756 4.7873 18.0679 4.56539 17.6529 4.43846C16.9539 4.22461 16.2084 4.28659 16.2084 4.28659C16.0829 4.29689 15.9635 4.23059 15.906 4.11859C15.8485 4.00659 15.8641 3.87099 15.9456 3.77512C15.9456 3.77512 16.31 3.3543 16.2414 2.85716C16.1937 2.51116 15.9226 2.15485 15.2351 1.84722C14.5414 1.53706 14.0731 1.5829 13.7598 1.7848C13.3026 2.07929 13.1895 2.65318 13.1895 2.65318C13.1711 2.74382 13.1134 2.82162 13.0318 2.86538C12.9504 2.90928 12.8537 2.91451 12.7678 2.87971C11.7181 2.45486 10.9288 2.94706 10.3982 3.5323C9.83056 4.15831 9.54324 4.89751 9.54324 4.89751C9.49277 5.02758 9.36195 5.10807 9.22322 5.09463C8.32946 5.00831 7.65775 5.04654 7.15973 5.46602C6.64363 5.90073 6.32704 6.71325 6.09976 8.09504C5.85052 9.60988 5.19793 11.0662 4.52758 12.4569C3.88022 13.8002 3.21583 15.0801 2.91985 16.2954C2.62686 17.4981 2.82114 18.7704 2.91253 19.998C3.01154 21.3281 2.99064 22.6067 2.2601 23.7158C1.42532 24.983 1.10082 26.215 0.975082 26.9572Z" fill="white" stroke="white" stroke-width="0.36"/>
<path fill-rule="evenodd" clip-rule="evenodd" d="M12.2078 26.5483C11.9798 27.1064 11.0172 28.9819 10.9026 29.9454C10.8835 30.1066 10.7434 30.226 10.5813 30.2195C10.4189 30.213 10.289 30.0827 10.2827 29.9204C10.2811 29.8747 10.2475 29.8308 10.2066 29.7792C10.1309 29.6837 10.0195 29.5853 9.87924 29.4832C9.12227 28.9312 7.6022 28.3275 5.80094 27.9008C3.92576 27.4566 2.2371 27.3193 1.33931 27.5054C1.18236 27.5378 1.05393 27.5787 0.961194 27.6347C0.927744 27.6549 0.895487 27.668 0.888767 27.6965C0.851733 27.8525 0.702399 27.9549 0.543658 27.9331C0.384916 27.9113 0.268735 27.7724 0.275156 27.6123C0.284713 27.374 0.381332 25.7915 1.35767 24.0092C1.41143 23.9112 1.51373 23.8496 1.62558 23.8476C7.22275 23.7571 10.2793 25.1331 12.0744 26.1607C12.2097 26.2382 12.2669 26.4039 12.2078 26.5483ZM0.975082 26.9572C1.04855 26.9342 1.12785 26.9137 1.21312 26.8961C2.16467 26.6989 3.95653 26.8244 5.94445 27.2953C7.84666 27.746 9.44647 28.3975 10.2459 28.9804C10.3223 29.0362 10.3919 29.0924 10.4549 29.1485C10.7328 28.2627 11.2583 27.1557 11.5228 26.5645C9.77456 25.6001 6.8857 24.4145 1.81822 24.4677C1.30377 25.4558 1.07588 26.3633 0.975082 26.9572Z" fill="white" stroke="white" stroke-width="0.36"/>
<path fill-rule="evenodd" clip-rule="evenodd" d="M15.8021 17.056C15.9563 16.9804 16.1429 17.0442 16.2184 17.1984C16.294 17.3525 16.2302 17.539 16.076 17.6146C15.6769 17.7962 15.2225 18.2671 14.4233 18.5248C14.1921 18.5993 13.9347 18.6614 13.6424 18.6861C13.3019 18.7148 12.918 18.6971 12.4775 18.6223C12.3925 18.6137 12.3305 18.5378 12.3392 18.4528C12.3478 18.3678 12.4237 18.3059 12.5087 18.3145C12.8447 18.3253 13.1398 18.2993 13.4062 18.2608C13.7316 18.2137 14.0083 18.1371 14.2495 18.041C14.7045 17.8595 15.0285 17.61 15.2973 17.403C15.4824 17.2604 15.6462 17.1379 15.8021 17.056Z" fill="white" stroke="white" stroke-width="0.36"/>
<path fill-rule="evenodd" clip-rule="evenodd" d="M12.1198 21.0211C12.8584 21.0211 13.4445 21.5836 13.4445 22.2586C13.4445 22.9336 12.8584 23.4961 12.1198 23.4961C11.3812 23.4961 10.7949 22.9336 10.7949 22.2586C10.7949 21.5836 11.3812 21.0211 12.1198 21.0211ZM12.1198 21.6432C11.7393 21.6432 11.4172 21.9108 11.4172 22.2586C11.4172 22.6062 11.7393 22.8738 12.1198 22.8738C12.5003 22.8738 12.8224 22.6062 12.8224 22.2586C12.8224 21.9108 12.5003 21.6432 12.1198 21.6432Z" fill="white" stroke="white" stroke-width="0.36"/>
<path fill-rule="evenodd" clip-rule="evenodd" d="M13.6211 12.6551C14.1213 12.6551 14.5273 13.0611 14.5273 13.5612C14.5273 14.0614 14.1213 14.4674 13.6211 14.4674C13.1209 14.4674 12.7148 14.0614 12.7148 13.5612C12.7148 13.0611 13.1209 12.6551 13.6211 12.6551ZM13.6211 13.2772C13.4643 13.2772 13.3371 13.4044 13.3371 13.5612C13.3371 13.7179 13.4643 13.8451 13.6211 13.8451C13.7778 13.8451 13.905 13.7179 13.905 13.5612C13.905 13.4044 13.7778 13.2772 13.6211 13.2772Z" fill="white" stroke="white" stroke-width="0.36"/>
<path fill-rule="evenodd" clip-rule="evenodd" d="M11.1078 12.4962C11.6079 12.4962 12.014 12.9023 12.014 13.4025C12.014 13.9026 11.6079 14.3087 11.1078 14.3087C10.6077 14.3087 10.2017 13.9026 10.2017 13.4025C10.2017 12.9023 10.6077 12.4962 11.1078 12.4962ZM11.1078 13.1185C10.951 13.1185 10.8238 13.2457 10.8238 13.4025C10.8238 13.5592 10.951 13.6864 11.1078 13.6864C11.2645 13.6864 11.3917 13.5592 11.3917 13.4025C11.3917 13.2457 11.2645 13.1185 11.1078 13.1185Z" fill="white" stroke="white" stroke-width="0.36"/>
<path fill-rule="evenodd" clip-rule="evenodd" d="M8.59512 12.3375C9.09524 12.3375 9.50128 12.7435 9.50128 13.2436C9.50128 13.7437 9.09524 14.1498 8.59512 14.1498C8.095 14.1498 7.68896 13.7437 7.68896 13.2436C7.68896 12.7435 8.095 12.3375 8.59512 12.3375ZM8.59512 12.9597C8.43847 12.9597 8.31124 13.087 8.31124 13.2436C8.31124 13.4004 8.43847 13.5277 8.59512 13.5277C8.75177 13.5277 8.879 13.4004 8.879 13.2436C8.879 13.087 8.75177 12.9597 8.59512 12.9597Z" fill="white" stroke="white" stroke-width="0.36"/>
<path fill-rule="evenodd" clip-rule="evenodd" d="M6.08145 12.1787C6.58157 12.1787 6.9876 12.5847 6.9876 13.0849C6.9876 13.585 6.58157 13.991 6.08145 13.991C5.58133 13.991 5.17529 13.585 5.17529 13.0849C5.17529 12.5847 5.58133 12.1787 6.08145 12.1787ZM6.08145 12.8008C5.9248 12.8008 5.79757 12.9281 5.79757 13.0849C5.79757 13.2415 5.9248 13.3687 6.08145 13.3687C6.23825 13.3687 6.36548 13.2415 6.36548 13.0849C6.36548 12.9281 6.23825 12.8008 6.08145 12.8008Z" fill="white" stroke="white" stroke-width="0.36"/>
<path fill-rule="evenodd" clip-rule="evenodd" d="M18.4557 7.22863C18.3523 7.09139 18.3798 6.89621 18.5169 6.79287C18.6541 6.68953 18.8493 6.71701 18.9526 6.85425C19.6115 7.75608 21.1417 9.7446 22.2437 11.3613C22.8492 12.2495 23.3212 13.0289 23.4857 13.443C23.5197 13.5212 23.4837 13.6125 23.4053 13.6464C23.3271 13.6804 23.2358 13.6444 23.2018 13.566C23.0175 13.1754 22.4965 12.4623 21.8702 11.6286C20.6975 10.0675 19.1392 8.10895 18.4557 7.22863Z" fill="white" stroke="white" stroke-width="0.36"/>
<path fill-rule="evenodd" clip-rule="evenodd" d="M21.3278 5.16941C21.2642 5.00993 21.3422 4.82878 21.5018 4.76532C21.6613 4.70185 21.8423 4.7798 21.9059 4.93929C22.2174 5.75301 22.9097 7.62505 23.9295 9.50531C24.1904 9.98632 24.4719 10.4678 24.7728 10.9338C25.0763 11.4038 25.396 11.859 25.7418 12.2765C25.7984 12.3404 25.7923 12.4384 25.7284 12.4948C25.6643 12.5514 25.5665 12.5453 25.5099 12.4814C25.0533 11.996 24.6241 11.4578 24.2321 10.8919C23.973 10.5179 23.7314 10.1321 23.5044 9.74544C22.4057 7.87384 21.6656 5.98642 21.3278 5.16941Z" fill="white" stroke="white" stroke-width="0.36"/>
<path fill-rule="evenodd" clip-rule="evenodd" d="M25.0901 7.15091C25.02 6.99411 25.0905 6.80998 25.2472 6.73994C25.404 6.6699 25.5881 6.74024 25.6581 6.89704C25.9075 7.48213 26.4103 9.02206 27.034 10.4724C27.2036 10.8669 27.3812 11.2544 27.5647 11.6151C27.7696 12.018 27.9777 12.3873 28.1991 12.6879C28.2525 12.7545 28.2418 12.8519 28.1752 12.9053C28.1087 12.9588 28.0112 12.9482 27.9577 12.8816C27.6538 12.5335 27.3519 12.0886 27.0684 11.593C26.9013 11.3007 26.7423 10.9907 26.5898 10.6755C25.9025 9.25442 25.3598 7.72689 25.0901 7.15091Z" fill="white" stroke="white" stroke-width="0.36"/>
<path fill-rule="evenodd" clip-rule="evenodd" d="M30.0409 29.2925C31.9966 28.702 33.7775 28.4682 34.7394 28.6074C35.0373 28.6505 35.2676 28.7317 35.4221 28.8366C35.5718 28.938 35.6644 29.0648 35.7072 29.2069C35.7501 29.3489 35.7432 29.5059 35.6747 29.6731C35.604 29.8461 35.4571 30.0411 35.2328 30.242C34.5088 30.8901 32.896 31.6808 30.9402 32.2714C28.9845 32.8619 27.2036 33.0957 26.2419 32.9565C25.9438 32.9134 25.7135 32.8321 25.559 32.7273C25.4093 32.6259 25.3167 32.4991 25.2739 32.357C25.231 32.2148 25.2379 32.058 25.3064 31.8907C25.3771 31.7178 25.524 31.5228 25.7483 31.3219C26.4723 30.6738 28.0851 29.883 30.0409 29.2925ZM30.2207 29.8882C28.3758 30.4452 26.8464 31.1741 26.1633 31.7856C26.0438 31.8925 25.9532 31.9923 25.9011 32.0873C25.8824 32.1215 25.8611 32.1491 25.8696 32.1772C25.8781 32.2052 25.9111 32.2164 25.9456 32.2345C26.0416 32.2848 26.1723 32.3177 26.3309 32.3407C27.2382 32.472 28.9154 32.2327 30.7604 31.6757C32.6054 31.1187 34.1347 30.3898 34.8178 29.7783C34.9373 29.6714 35.0279 29.5716 35.08 29.4766C35.0987 29.4424 35.12 29.4148 35.1115 29.3867C35.103 29.3586 35.07 29.3474 35.0355 29.3294C34.9396 29.2791 34.8088 29.2462 34.6502 29.2232C33.7429 29.0919 32.0657 29.3312 30.2207 29.8882Z" fill="white" stroke="white" stroke-width="0.36"/>
<path fill-rule="evenodd" clip-rule="evenodd" d="M15.0679 23.3847C15.294 23.2634 15.5363 23.1361 15.7963 23.0022C17.7533 21.9948 19.1051 21.4338 19.86 20.8489C20.1748 20.605 20.3756 20.3643 20.4437 20.064C20.5156 19.7478 20.4454 19.3788 20.2605 18.9018C20.0259 18.2967 19.7015 17.8903 19.3307 17.6294C19.2682 17.5853 19.224 17.5196 19.2066 17.445C18.8043 15.704 17.8827 13.3392 16.5279 11.1758C16.4762 11.093 16.4662 10.9909 16.501 10.8997C16.9183 9.80729 17.4408 8.67878 18.0648 7.60417C18.9647 6.05424 18.8551 5.22708 18.3238 4.78042C18.2533 4.72129 18.2127 4.63408 18.2128 4.54209C18.2128 4.4501 18.2536 4.36289 18.3242 4.30375C18.4873 4.16726 18.6889 4.03211 18.9372 3.90249C19.8798 3.41029 20.5438 3.50437 20.9986 3.75973C21.4095 3.9903 21.6554 4.3726 21.7879 4.64662C22.9649 4.23073 23.9186 4.7419 24.5903 5.39792C25.065 5.86175 25.3917 6.39636 25.5488 6.68413C26.5282 6.55406 27.2787 6.63335 27.8762 7.07762C28.4994 7.541 28.9716 8.4273 29.3289 9.99888C29.6564 11.4386 30.3744 12.7957 31.099 14.092C31.8494 15.4343 32.6071 16.7134 32.9876 17.946C33.372 19.1907 33.2646 20.5384 33.2468 21.8334C33.2304 23.0257 33.2871 24.1729 33.9992 25.1232C35.4544 27.0652 35.6917 29.0002 35.7184 29.2654C35.7347 29.4249 35.6271 29.5705 35.47 29.6019C35.3127 29.6333 35.1574 29.5401 35.1111 29.3867C35.1026 29.3586 35.0696 29.3474 35.0351 29.3294C34.9392 29.279 34.8084 29.2462 34.6498 29.2232C33.7425 29.0919 32.0653 29.3312 30.2203 29.8882C28.4483 30.4232 26.9675 31.1179 26.2453 31.7147C26.1117 31.8252 26.0064 31.9302 25.9367 32.0301C25.8989 32.0841 25.8681 32.1298 25.869 32.1757C25.8727 32.338 25.7509 32.4758 25.5893 32.4922C25.4277 32.5085 25.2808 32.3979 25.252 32.2381C25.0693 31.229 23.8847 29.2641 23.7025 28.8373C23.6499 28.7141 23.6369 28.5842 23.5358 28.4192C23.4458 28.2724 23.2814 28.0997 22.9578 27.8677C22.4072 27.473 21.4383 26.9408 19.696 26.1736C17.2411 25.0926 15.7024 24.578 14.9962 23.8802C14.926 23.8107 14.8928 23.7122 14.907 23.6144C14.9212 23.5167 14.9808 23.4314 15.0679 23.3847ZM34.9801 28.6539C34.8098 27.9207 34.4112 26.7106 33.5013 25.4963C32.7047 24.4335 32.6063 23.1584 32.6247 21.8249C32.6416 20.5941 32.7584 19.3124 32.3931 18.1295C32.0241 16.9345 31.2834 15.6972 30.5558 14.3956C29.8025 13.0478 29.0628 11.6339 28.7222 10.1369C28.4117 8.77151 28.0464 7.9796 27.505 7.57699C26.9824 7.18843 26.3097 7.19097 25.4228 7.33134C25.2851 7.35314 25.1497 7.28057 25.0914 7.15393C25.0914 7.15393 24.7598 6.4334 24.1554 5.84308C23.5903 5.291 22.7724 4.84748 21.7504 5.3352C21.6669 5.37507 21.5701 5.37567 21.4861 5.33684C21.4021 5.29816 21.3397 5.22394 21.3158 5.13464C21.3158 5.13464 21.1683 4.56852 20.694 4.30226C20.3691 4.11977 19.8988 4.1023 19.2253 4.45398C19.1424 4.49729 19.0658 4.54119 18.9952 4.5854C19.4713 5.20319 19.5833 6.22821 18.6029 7.91658C18.0233 8.91457 17.534 9.96051 17.1375 10.9779C18.4597 13.124 19.3678 15.4467 19.7861 17.192C20.2022 17.5129 20.5732 17.9867 20.8406 18.677C21.0824 19.3009 21.1444 19.7881 21.0506 20.2016C20.9532 20.6307 20.6907 20.9924 20.2411 21.3406C19.4675 21.94 18.0866 22.523 16.0811 23.5555C15.9769 23.6091 15.8755 23.6617 15.7769 23.7132C15.9955 23.8606 16.2624 24.0029 16.5772 24.1535C17.3907 24.5425 18.5091 24.9711 19.9469 25.6042C23.0179 26.9566 23.7966 27.6537 24.0664 28.0941C24.1878 28.2922 24.2116 28.445 24.2747 28.593C24.4266 28.9487 25.239 30.34 25.6504 31.4158C25.7097 31.356 25.7758 31.2955 25.849 31.2352C26.6116 30.6048 28.169 29.8575 30.0405 29.2925C31.9962 28.702 33.7771 28.4682 34.739 28.6073C34.825 28.6199 34.9055 28.6356 34.9801 28.6539Z" fill="white" stroke="white" stroke-width="0.36"/>
<path fill-rule="evenodd" clip-rule="evenodd" d="M23.8535 28.5313C25.5829 27.3968 28.5506 25.8382 34.143 25.5896C34.2547 25.5847 34.3606 25.6399 34.4202 25.7346C35.5027 27.4545 35.6949 29.0282 35.7189 29.2654C35.7352 29.4249 35.6275 29.5705 35.4704 29.6019C35.3132 29.6333 35.1579 29.5401 35.1116 29.3867C35.1031 29.3586 35.0701 29.3474 35.0356 29.3294C34.9397 29.279 34.8089 29.2462 34.6503 29.2232C33.7429 29.0919 32.0658 29.3311 30.2207 29.8882C28.4488 30.4232 26.968 31.1179 26.2458 31.7147C26.1121 31.8252 26.0069 31.9302 25.9371 32.0301C25.8993 32.0841 25.8686 32.1298 25.8695 32.1757C25.8732 32.338 25.7513 32.4758 25.5898 32.4922C25.4282 32.5085 25.2812 32.3979 25.2524 32.2381C25.0796 31.2834 24.0052 29.4696 23.7437 28.9263C23.6761 28.7858 23.7229 28.6169 23.8535 28.5313ZM34.9806 28.6539C34.8441 28.0672 34.5616 27.1751 33.9878 26.2198C28.9269 26.474 26.1151 27.8324 24.4284 28.9009C24.7283 29.4751 25.3198 30.5481 25.6511 31.4157C25.7104 31.3558 25.7764 31.2955 25.8495 31.2352C26.6121 30.6048 28.1695 29.8576 30.0409 29.2925C31.9966 28.702 33.7776 28.4682 34.7394 28.6073C34.8254 28.6199 34.9059 28.6354 34.9806 28.6539Z" fill="white" stroke="white" stroke-width="0.36"/>
<path fill-rule="evenodd" clip-rule="evenodd" d="M20.414 20.8628C20.2597 20.7872 20.196 20.6007 20.2715 20.4466C20.3471 20.2923 20.5336 20.2286 20.6877 20.3041C20.9747 20.4606 21.3209 20.5998 21.7623 20.6701C21.9411 20.6985 22.1336 20.716 22.3446 20.7242C22.5317 20.7315 22.729 20.7384 22.945 20.7258C23.0293 20.7121 23.1089 20.7693 23.1226 20.8537C23.1363 20.9379 23.0792 21.0175 22.9949 21.0312C22.7212 21.1047 22.4709 21.1544 22.2338 21.1768C22.0477 21.1943 21.873 21.1907 21.708 21.1813C21.1841 21.1517 20.7657 21.0166 20.414 20.8628Z" fill="white" stroke="white" stroke-width="0.36"/>
<path fill-rule="evenodd" clip-rule="evenodd" d="M23.4967 23.4038C24.234 23.359 24.8531 23.8851 24.894 24.5588C24.935 25.2326 24.3839 25.8296 23.6467 25.8744C22.9094 25.9191 22.2901 25.3931 22.2492 24.7193C22.2084 24.0455 22.7595 23.4486 23.4967 23.4038ZM23.5344 24.0249C23.1546 24.0479 22.8492 24.3346 22.8703 24.6817C22.8913 25.0287 23.2291 25.2763 23.6089 25.2533C23.9888 25.2302 24.294 24.9436 24.273 24.5966C24.2519 24.2494 23.9141 24.0019 23.5344 24.0249Z" fill="white" stroke="white" stroke-width="0.36"/>
<path fill-rule="evenodd" clip-rule="evenodd" d="M21.4919 15.1441C21.9911 15.1138 22.421 15.4945 22.4513 15.9937C22.4817 16.4929 22.101 16.9229 21.6018 16.9532C21.1026 16.9835 20.6726 16.6027 20.6423 16.1035C20.612 15.6042 20.9927 15.1745 21.4919 15.1441ZM21.5297 15.7652C21.3732 15.7746 21.2538 15.9093 21.2634 16.0658C21.273 16.2222 21.4077 16.3415 21.564 16.3321C21.7205 16.3225 21.8397 16.1878 21.8303 16.0315C21.8207 15.875 21.686 15.7557 21.5297 15.7652Z" fill="white" stroke="white" stroke-width="0.36"/>
<path fill-rule="evenodd" clip-rule="evenodd" d="M23.991 14.8334C24.4903 14.8031 24.92 15.1838 24.9504 15.683C24.9807 16.1822 24.6 16.6121 24.1008 16.6424C23.6016 16.6728 23.1716 16.292 23.1413 15.7929C23.1112 15.2937 23.4918 14.8637 23.991 14.8334ZM24.0287 15.4545C23.8723 15.4641 23.753 15.5988 23.7624 15.7551C23.772 15.9116 23.9067 16.0308 24.0632 16.0214C24.2195 16.0118 24.3388 15.8771 24.3293 15.7208C24.3199 15.5643 24.1852 15.4449 24.0287 15.4545Z" fill="white" stroke="white" stroke-width="0.36"/>
<path fill-rule="evenodd" clip-rule="evenodd" d="M26.4899 14.5226C26.9891 14.4923 27.4191 14.8731 27.4494 15.3721C27.4797 15.8713 27.0989 16.3013 26.5997 16.3316C26.1005 16.3619 25.6707 15.9813 25.6404 15.482C25.61 14.9828 25.9907 14.5529 26.4899 14.5226ZM26.5277 15.1436C26.3712 15.1532 26.2519 15.2879 26.2614 15.4443C26.2708 15.6008 26.4057 15.7201 26.562 15.7105C26.7186 15.701 26.8377 15.5663 26.8283 15.4099C26.8188 15.2534 26.6841 15.1342 26.5277 15.1436Z" fill="white" stroke="white" stroke-width="0.36"/>
<path fill-rule="evenodd" clip-rule="evenodd" d="M28.9886 14.2119C29.4878 14.1816 29.9176 14.5624 29.9479 15.0616C29.9782 15.5608 29.5976 15.9906 29.0984 16.0209C28.5991 16.0512 28.1692 15.6706 28.1389 15.1714C28.1086 14.6721 28.4894 14.2422 28.9886 14.2119ZM29.0262 14.833C28.8699 14.8425 28.7506 14.9772 28.76 15.1336C28.7695 15.2901 28.9042 15.4094 29.0606 15.3998C29.2171 15.3904 29.3364 15.2557 29.3268 15.0992C29.3174 14.9429 29.1827 14.8236 29.0262 14.833Z" fill="white" stroke="white" stroke-width="0.36"/>
</svg>
