<svg width="34" height="30" viewBox="0 0 34 30" fill="none" xmlns="http://www.w3.org/2000/svg">
<path d="M1.26611 29.4696C1.26611 29.7603 1.50161 29.9958 1.79235 29.9958C2.0831 29.9958 2.3186 29.7603 2.3186 29.4696V24.707C2.15415 24.7977 2.00285 24.9135 1.8713 25.049C1.7029 25.2266 1.49635 25.3621 1.26611 25.4437V29.4696Z" fill="white"/>
<path d="M14.9487 25.4439V29.4696C14.9487 29.7603 15.1842 29.9958 15.475 29.9958C15.7657 29.9958 16.0012 29.7603 16.0012 29.4696V25.4176C15.6618 25.5426 15.2882 25.5426 14.9487 25.4176V25.4439Z" fill="white"/>
<path d="M21.0528 10.788C21.1923 10.788 21.3265 10.7327 21.4251 10.634C21.5238 10.5354 21.5791 10.4012 21.5791 10.2617V8.34094H19.4741C19.1834 8.34094 18.9479 8.57644 18.9479 8.86718C18.9479 9.15793 19.1834 9.39343 19.4741 9.39343H19.7372L18.369 10.709L17.4218 9.81442C17.2113 9.6105 16.8758 9.61708 16.6719 9.82757C16.4679 10.0381 16.4745 10.3736 16.685 10.5775L18.0006 11.8405C18.2058 12.0404 18.5321 12.0404 18.7373 11.8405L20.5529 10.1302V10.2617C20.5529 10.542 20.7726 10.7735 21.0528 10.788Z" fill="white"/>
<path d="M26.5777 10.788C26.7172 10.788 26.8514 10.7327 26.9501 10.634C27.0487 10.5354 27.104 10.4012 27.104 10.2617V8.34094H24.999C24.7083 8.34094 24.4728 8.57644 24.4728 8.86718C24.4728 9.15793 24.7083 9.39343 24.999 9.39343H25.2621L23.8939 10.709L22.9467 9.81442C22.7362 9.6105 22.4007 9.61708 22.1968 9.82757C21.9928 10.0381 21.9994 10.3736 22.2099 10.5775L23.5255 11.8405C23.7307 12.0404 24.057 12.0404 24.2622 11.8405L26.0778 10.1302V10.2617C26.0778 10.542 26.2975 10.7735 26.5777 10.788Z" fill="white"/>
<path d="M0.239746 23.7336V23.9441V23.9967V24.3125H1.10804C1.65007 23.7428 2.40126 23.4205 3.1867 23.4205C3.97213 23.4205 4.72332 23.7428 5.26536 24.3125H6.0284C6.55595 23.7573 7.28481 23.4363 8.05048 23.4218C8.81746 23.406 9.55817 23.6994 10.1068 24.2336L10.1857 24.3388C10.3988 24.5427 10.7356 24.5427 10.9488 24.3388L11.0277 24.2336C11.5763 23.6994 12.317 23.4061 13.084 23.4218C13.8497 23.4363 14.5785 23.7573 15.1061 24.3125C15.2034 24.4112 15.335 24.4677 15.4745 24.4704H15.6323C15.7849 24.469 15.9283 24.4019 16.027 24.2862L24.9204 13.7351L32.314 23.6809H31.5247L27.2622 18.2343C27.0806 18.0015 26.7452 17.9607 26.5123 18.1422C26.2794 18.3238 26.2386 18.6593 26.4202 18.8921L30.7352 24.4176V29.4695C30.7352 29.7602 30.9707 29.9957 31.2614 29.9957C31.5522 29.9957 31.7877 29.7602 31.7877 29.4695V24.7335H33.5506L33.6822 24.6545H33.7611V23.8915L25.3412 12.5772H25.2886L25.2097 12.4983H25.1834L25.0518 12.4457H12.3169L11.054 13.4982H13.4484L11.3434 16.1294C10.7027 15.6097 9.90547 15.3229 9.08056 15.3137H8.73851L8.84376 15.1821C8.39118 15.3637 7.88864 15.3821 7.42289 15.2347L0.318554 23.6021H0.292242V23.681L0.239746 23.7336ZM2.7131 22.418L3.94977 20.9446H3.97608C4.48127 20.3644 5.20616 20.021 5.9758 19.9973C6.5928 20.0052 7.1888 20.2289 7.65977 20.6288L5.60741 23.1811C4.9154 22.6443 4.06291 22.3575 3.1867 22.3654L2.7131 22.418ZM11.8433 17.0768C12.3932 16.5256 13.1431 16.2217 13.9219 16.2348C14.6165 16.2361 15.2928 16.4677 15.8427 16.8926L13.5798 19.708L13.4483 19.8133C12.7273 19.2489 11.838 18.9423 10.9223 18.945L10.2908 18.9976L11.8433 17.0768ZM17.0002 17.1558C18.0264 16.0783 19.7051 15.9638 20.868 16.8926L18.3946 19.8396C17.6921 19.2581 16.8067 18.941 15.895 18.945H15.5266L16.9211 17.2347L17.0002 17.1558ZM8.10686 22.3656L7.55431 22.4182L8.79099 20.8922C9.87769 19.8002 11.6103 19.6989 12.8167 20.6554L10.9748 22.9445L10.5801 23.2339C9.88025 22.6669 9.00674 22.3603 8.10686 22.3656ZM15.5005 23.2602C14.798 22.6787 13.9126 22.3616 13.0008 22.3656H12.764L14.2901 20.4712C15.34 19.762 16.7306 19.8265 17.7106 20.629L15.5005 23.2602ZM21.5524 16.0771C20.8603 15.5166 19.996 15.2101 19.1053 15.2088L18.5265 15.2614L20.0262 13.4195H23.8152L21.5524 16.0771ZM18.658 13.4196L16.5267 16.0771C15.79 15.5008 14.8836 15.1864 13.9482 15.1825L13.3693 15.2351L14.8165 13.4196L18.658 13.4196ZM9.08026 16.2876C9.66571 16.2928 10.2314 16.4967 10.6853 16.8664L8.31722 19.8134C7.66074 19.2622 6.83323 18.9556 5.97545 18.9451H5.60707L7.13315 17.1559C7.63571 16.6125 8.33958 16.2994 9.08026 16.2876Z" fill="white"/>
<path d="M13.343 2.94697C13.2904 2.94697 11.738 2.94697 10.5539 2.34178C9.3699 1.7366 8.55422 0.289424 8.52791 0.263121C8.43582 0.102618 8.26611 0.00263036 8.08062 0C7.89512 0.00263104 7.7254 0.102618 7.63332 0.263121C7.63332 0.289433 6.87028 1.65765 5.92304 2.15759C4.97581 2.65753 2.7919 2.94697 2.7656 2.94697C2.4959 2.97459 2.29065 3.20219 2.292 3.47321V7.57805C2.29989 8.9318 2.90638 10.2132 3.94967 11.0777L7.37015 13.9457C7.76747 14.272 8.34106 14.272 8.73838 13.9457L12.1589 11.0777C13.2218 10.2238 13.8481 8.94113 13.8691 7.57805V3.47321C13.8691 3.33375 13.8139 3.19956 13.7152 3.10088C13.6165 3.0022 13.4825 2.94697 13.343 2.94697ZM12.8168 7.57789C12.8049 8.61851 12.3326 9.60128 11.5275 10.2617L8.10699 13.1561H8.08068L4.63392 10.2617C3.82878 9.60131 3.35646 8.61855 3.34464 7.57789V3.94691C4.08138 3.84166 5.44961 3.60486 6.39684 3.10492C7.0678 2.69841 7.64271 2.15112 8.08081 1.4999C8.60574 2.23795 9.28852 2.8497 10.0805 3.28912C10.9422 3.68381 11.8711 3.91666 12.817 3.97321L12.8168 7.57789Z" fill="white"/>
<path d="M9.37009 5.1307C9.07408 4.60709 8.81886 4.06243 8.60705 3.49934C8.53206 3.29937 8.34261 3.16518 8.12947 3.15992C7.91503 3.15334 7.72034 3.27701 7.63348 3.47303C7.39535 4.02426 7.12303 4.56105 6.81779 5.07806C6.69544 5.27803 6.56388 5.47012 6.42311 5.65694C6.17314 5.97005 5.95345 6.30423 5.76531 6.65682C5.20485 7.79087 5.38117 9.15118 6.21261 10.1036C6.67439 10.6811 7.36771 11.0284 8.10708 11.0508C8.9267 11.0284 9.68449 10.6061 10.1331 9.91937C10.7764 8.9774 10.8672 7.76312 10.3699 6.73563C10.1962 6.39489 9.99364 6.0686 9.76472 5.76209C9.62263 5.55817 9.49113 5.34777 9.37009 5.1307ZM9.29115 9.31436C9.03593 9.72616 8.59126 9.9827 8.10712 9.99846C7.68612 9.97478 7.29406 9.77349 7.02833 9.44591C6.46919 8.81705 6.34555 7.91323 6.71259 7.15676C6.87178 6.86074 7.05726 6.57922 7.26513 6.31477C7.43485 6.09507 7.59272 5.86747 7.73873 5.63067L8.10712 4.94658L8.44917 5.60437C8.59388 5.85828 8.75176 6.10431 8.92277 6.34111C9.12011 6.59765 9.29641 6.87129 9.44901 7.15679C9.79237 7.85143 9.73188 8.67762 9.29115 9.31436Z" fill="white"/>
</svg>
