<svg width="22" height="22" viewBox="0 0 22 22" fill="none" xmlns="http://www.w3.org/2000/svg">
<path fill-rule="evenodd" clip-rule="evenodd" d="M9.7729 0.977273C9.7729 0.43754 10.2104 0 10.7502 0C16.6882 0 21.5002 4.81364 21.5002 10.75C21.5002 16.6864 16.6882 21.5 10.7502 21.5C10.2104 21.5 9.7729 21.0625 9.7729 20.5227C9.7729 19.983 10.2104 19.5455 10.7502 19.5455C15.6085 19.5455 19.5456 15.6071 19.5456 10.75C19.5456 5.89292 15.6085 1.95455 10.7502 1.95455C10.2104 1.95455 9.7729 1.51701 9.7729 0.977273ZM8.33105 1.26096C8.52413 1.76497 8.27206 2.33008 7.76804 2.52315C6.8427 2.87763 5.97663 3.36191 5.21436 3.95245C4.78769 4.283 4.17384 4.20508 3.84329 3.77841C3.51274 3.35174 3.59067 2.73789 4.01734 2.40734C4.93574 1.69584 5.9705 1.11869 7.06885 0.697946C7.57287 0.50487 8.13797 0.756938 8.33105 1.26096ZM2.76043 4.97586C3.21878 5.26088 3.35928 5.86349 3.07427 6.32183C2.51386 7.22304 2.12605 8.20814 1.93814 9.21523C1.83914 9.74581 1.32877 10.0957 0.798194 9.99667C0.267618 9.89767 -0.082244 9.3873 0.0167547 8.85673C0.251155 7.60047 0.731403 6.38814 1.41446 5.2897C1.69948 4.83136 2.30209 4.69085 2.76043 4.97586ZM0.798194 11.5033C1.32877 11.4043 1.83914 11.7542 1.93814 12.2848C2.12605 13.2919 2.51386 14.277 3.07427 15.1782C3.35928 15.6365 3.21878 16.2391 2.76043 16.5241C2.30209 16.8092 1.69948 16.6686 1.41447 16.2103C0.731403 15.1119 0.251155 13.8995 0.0167547 12.6433C-0.082244 12.1127 0.267618 11.6023 0.798194 11.5033ZM3.84761 17.7161C4.18122 17.2918 4.79562 17.2183 5.2199 17.5519C5.97608 18.1464 6.83862 18.6229 7.76658 18.9767C8.2709 19.1689 8.52388 19.7337 8.33161 20.238C8.13934 20.7423 7.57464 20.9953 7.07031 20.803C5.97459 20.3853 4.93629 19.8152 4.0118 19.0883C3.58752 18.7547 3.51401 18.1403 3.84761 17.7161Z" fill="white"/>
<path d="M7.76649 8.5C7.76649 6.85094 9.09087 5.5 10.7419 5.5C12.3929 5.5 13.7173 6.85094 13.7173 8.5C13.7173 10.1491 12.3929 11.5 10.7419 11.5C9.09087 11.5 7.76649 10.1491 7.76649 8.5Z" fill="white"/>
<path d="M6.22014 14.7182C8.57286 12.2436 12.884 12.1085 15.288 14.7275C15.4238 14.8756 15.4946 15.072 15.4845 15.2726C15.4743 15.4733 15.384 15.6615 15.2339 15.7951C14.042 16.8552 12.4701 17.5 10.7494 17.5C9.02884 17.5 7.45705 16.8553 6.26526 15.7954C6.11339 15.6603 6.02284 15.4694 6.01433 15.2663C6.00582 15.0633 6.08009 14.8654 6.22014 14.7182Z" fill="white"/>
</svg>
