<svg width="36" height="28" viewBox="0 0 36 28" fill="none" xmlns="http://www.w3.org/2000/svg">
<path d="M35.1435 17.876C35.1435 17.8414 35.1331 17.8101 35.1257 17.7787V0.681383C35.1257 0.462146 34.9649 0.285767 34.7685 0.285767H1.23194C1.03402 0.285767 0.874791 0.463796 0.874791 0.681383V3.14408C0.873303 3.16056 0.865863 3.17375 0.865863 3.19023V5.90844C0.865863 5.92493 0.871815 5.93811 0.874791 5.9546V8.51456C0.867351 8.54588 0.856934 8.5772 0.856934 8.61182V11.33C0.856934 11.3646 0.867351 11.396 0.874791 11.4273V13.4878C0.868839 13.524 0.870327 13.5603 0.874791 13.5966V27.3146C0.874791 27.5339 1.03551 27.7103 1.23194 27.7103H34.767C34.9649 27.7103 35.1241 27.5322 35.1241 27.3146L35.1256 17.9747C35.1331 17.9418 35.1435 17.9106 35.1435 17.876ZM18.7949 15.4792C18.7428 15.016 18.5196 14.599 18.1639 14.3303L14.7204 11.7291H20.2146H20.2161H34.41V17.4656C33.157 17.3634 32.6079 16.7519 31.9829 16.0496C31.2864 15.2683 30.4962 14.3815 28.6703 14.3815C26.8771 14.3815 26.0139 15.059 25.1791 15.7133C24.4023 16.3232 23.6701 16.8985 22.1105 16.8985C21.3233 16.8969 20.1788 16.404 18.7949 15.4792ZM14.0641 16.8836C13.9272 16.8408 13.8126 16.7419 13.7426 16.6034C13.6727 16.4666 13.6548 16.3067 13.6935 16.1534C13.7322 16.0018 13.8215 15.8748 13.9465 15.7974C14.0283 15.7463 14.1191 15.7215 14.2069 15.7215C14.3944 15.7215 14.576 15.8303 14.6742 16.0232C14.7442 16.1617 14.762 16.3199 14.7233 16.4732C14.6846 16.6249 14.5953 16.7518 14.4703 16.8293C14.3453 16.9067 14.201 16.9265 14.0641 16.8836ZM15.1043 17.2694C15.2457 17.1062 15.3543 16.91 15.4123 16.6858C15.5031 16.3298 15.4614 15.9556 15.2977 15.6342C15.134 15.3127 14.8662 15.0787 14.5447 14.9797C14.2233 14.8808 13.887 14.9253 13.5953 15.1067C13.3036 15.288 13.0938 15.583 13.0045 15.9391C12.9137 16.2952 12.9554 16.6694 13.1191 16.9908C13.2828 17.3123 13.5506 17.5463 13.8721 17.6452C13.9837 17.6798 14.0983 17.698 14.2114 17.698C14.3037 17.698 14.3944 17.6848 14.4837 17.6617L14.7784 18.242L12.4747 19.6777C12.2441 19.8211 11.9673 19.8244 11.7336 19.681C11.5015 19.5392 11.3542 19.2788 11.3408 18.9854L10.9881 11.5064C10.9732 11.1784 11.1176 10.8866 11.375 10.7267C11.4941 10.6526 11.622 10.6146 11.75 10.6146C11.8988 10.6146 12.0462 10.6641 12.1786 10.7646L17.7635 14.9846C17.9823 15.151 18.1073 15.4247 18.0954 15.7181C18.0835 16.0115 17.9391 16.2736 17.707 16.417L15.4033 17.8527L15.1043 17.2694ZM10.3483 10.9361H9.57301V9.02567H14.4139V10.9361H13.6728H13.6713L12.579 10.112C12.1117 9.75919 11.515 9.73117 11.0225 10.0378C10.6966 10.2389 10.4629 10.5603 10.3483 10.9361ZM3.4091 5.51272H1.59061V3.58739H3.4091V5.51272ZM1.59061 9.009H3.40019V10.9343H1.59061V9.009ZM1.59061 8.21612V6.30564H6.53437V8.21612H1.59061ZM9.58207 3.58731H14.4214V5.51264H9.58207V3.58731ZM15.1373 3.58731H19.865V5.51264H15.1373V3.58731ZM20.5809 3.58731H25.5334V5.51264H20.5824L20.5809 3.58731ZM26.2492 3.58731H31.0886V5.51264H26.2492V3.58731ZM34.4011 3.58731V5.51264H31.8028V3.58731H34.4011ZM34.41 6.30551V8.21599H29.9203V6.30551H34.41ZM31.7953 9.00887H34.3936V10.9342H31.7953V9.00887ZM25.5228 10.9342H20.5718V9.02372H25.5228V10.9342ZM9.22478 6.30539H12.2025V8.21587H9.21434H9.21137H7.2515V6.30539H9.22478ZM14.78 6.30539H17.8694V8.21587H12.9168V6.30539H14.78ZM20.2236 6.30539H23.5376V8.21587H20.2176H20.2146H18.5852V6.30539H20.2236ZM25.8904 6.30539H29.2045V8.21587H24.2519V6.30539H25.8904ZM15.1297 10.6029V9.02541H19.8559V10.9359H15.1297V10.6029ZM26.2386 9.02377H29.5631C29.5854 9.02377 29.6063 9.01388 29.6286 9.00893H31.0795V10.9343H26.2386L26.2386 9.02377ZM8.86592 5.51268H4.12483V3.58735H8.86592V5.51268ZM4.11569 9.00895H6.82708C6.8494 9.0139 6.86875 9.02379 6.89256 9.02379H8.85688V10.9343H4.11579L4.11569 9.00895ZM34.4099 1.07849V2.79447H1.59066V1.07849H34.4099ZM1.59066 26.9187V14.2079C2.82434 14.8755 3.91663 15.2052 4.89434 15.2052C5.11309 15.2052 5.32441 15.1837 5.53276 15.1508V18.0371C5.53276 18.8696 6.14439 19.5487 6.89737 19.5487C7.13398 19.5487 7.35273 19.4761 7.54618 19.3591V20.1075C7.54618 20.9399 8.15782 21.619 8.91079 21.619C9.66377 21.619 10.2754 20.9415 10.2754 20.1075C10.2754 19.8882 10.1147 19.7118 9.91825 19.7118C9.72033 19.7118 9.5611 19.8899 9.5611 20.1075C9.5611 20.5031 9.26942 20.8262 8.91228 20.8262C8.55513 20.8262 8.26346 20.5031 8.26346 20.1075V16.926C8.26346 16.7068 8.10274 16.5304 7.90631 16.5304C7.70839 16.5304 7.54915 16.7084 7.54915 16.926V18.0387C7.54915 18.4343 7.25748 18.7574 6.90034 18.7574C6.54319 18.7574 6.25152 18.4359 6.25152 18.0387V14.7748C6.25152 14.7188 6.23961 14.6644 6.22027 14.6166C6.21878 14.6067 6.22176 14.5952 6.21878 14.5853C6.17116 14.3726 5.97473 14.2441 5.78425 14.2968C4.66517 14.6084 3.25443 14.2737 1.59214 13.316V11.7286H9.21292H9.21441H10.2799L10.6252 19.0278C10.652 19.5982 10.9377 20.1009 11.3886 20.3762C11.6118 20.513 11.8559 20.5806 12.1014 20.5806C12.3499 20.5806 12.5984 20.5097 12.8261 20.3696L15.1298 18.9338L15.6908 20.0399C15.5241 20.1965 15.4021 20.4026 15.3411 20.64C15.2622 20.9532 15.2979 21.2812 15.4408 21.5647L16.9721 24.5813C17.173 24.9785 17.548 25.2011 17.9319 25.2011C18.1135 25.2011 18.2995 25.15 18.4691 25.0445L18.7325 24.8796C19.2608 24.55 19.4483 23.8065 19.1522 23.2214L17.6209 20.2048C17.359 19.6888 16.804 19.4663 16.3143 19.6476L15.7533 18.5416L18.0569 17.1058C18.3456 16.9262 18.5644 16.6509 18.6894 16.3261C20.0853 17.2261 21.2356 17.6861 22.1121 17.6861C23.8994 17.6861 24.7625 17.0102 25.5944 16.3558C26.3712 15.7459 27.1063 15.169 28.6703 15.169C30.1972 15.169 30.7895 15.8333 31.474 16.6014C32.1213 17.3267 32.8491 18.141 34.4116 18.2548V26.9153L1.59066 26.9187ZM18.3797 24.1906L18.1163 24.3554C17.9333 24.4691 17.6981 24.3983 17.594 24.1939L16.0627 21.1773C15.9585 20.9729 16.024 20.7141 16.2085 20.5987L16.4719 20.4339C16.53 20.3976 16.5939 20.3795 16.6594 20.3795C16.6937 20.3795 16.7294 20.3844 16.7636 20.396C16.8618 20.4273 16.9437 20.4982 16.9943 20.5971L18.5255 23.6136C18.6297 23.8164 18.5642 24.0752 18.3797 24.1906Z" fill="white" stroke="white" stroke-width="0.24"/>
</svg>
