<svg width="22" height="20" viewBox="0 0 22 20" fill="none" xmlns="http://www.w3.org/2000/svg">
<path d="M11.7949 0C13.6315 -8.14982e-06 15.0717 0.000280678 16.2139 0.124023C17.3792 0.250317 18.3236 0.512866 19.1299 1.09863C19.6178 1.45317 20.0468 1.8822 20.4014 2.37012C20.9871 3.17636 21.2497 4.12077 21.376 5.28613C21.4997 6.42825 21.5 7.86859 21.5 9.70508V9.79492C21.5 11.6314 21.4997 13.0718 21.376 14.2139C21.2497 15.3792 20.9871 16.3236 20.4014 17.1299C20.0468 17.6178 19.6178 18.0468 19.1299 18.4014C18.3236 18.9871 17.3792 19.2497 16.2139 19.376C15.0718 19.4997 13.6314 19.5 11.7949 19.5H9.70508C7.86859 19.5 6.42825 19.4997 5.28613 19.376C4.12077 19.2497 3.17636 18.9871 2.37012 18.4014C1.8822 18.0468 1.45317 17.6178 1.09863 17.1299C0.512866 16.3236 0.250317 15.3792 0.124023 14.2139C0.000280678 13.0717 -8.14982e-06 11.6315 0 9.79492V9.70508C-8.14982e-06 7.86854 0.000280678 6.42827 0.124023 5.28613C0.250317 4.12077 0.512867 3.17636 1.09863 2.37012C1.45317 1.8822 1.8822 1.45317 2.37012 1.09863C3.17636 0.512867 4.12077 0.250317 5.28613 0.124023C6.42827 0.000280678 7.86854 -8.14982e-06 9.70508 0H11.7949ZM7.20898 11C5.57401 11.0242 3.83114 11.8089 3.07129 13.4316C2.89567 13.8068 3.05748 14.2531 3.43262 14.4287C3.53548 14.4768 3.64347 14.5 3.75 14.5H10.75C10.8567 14.5001 10.9653 14.4769 11.0684 14.4287C11.4433 14.253 11.6053 13.8067 11.4297 13.4316C10.6269 11.717 8.85326 10.9757 7.20898 11ZM12.75 9.25C12.1977 9.25 11.75 9.69771 11.75 10.25C11.75 10.8023 12.1977 11.25 12.75 11.25H15.75C16.3023 11.25 16.75 10.8023 16.75 10.25C16.75 9.69771 16.3023 9.25 15.75 9.25H12.75ZM7.25 4C5.73122 4 4.5 5.23122 4.5 6.75C4.50007 8.26873 5.73126 9.5 7.25 9.5C8.76874 9.5 9.99993 8.26873 10 6.75C10 5.23122 8.76878 4 7.25 4ZM12.75 5.75C12.1977 5.75 11.75 6.19772 11.75 6.75C11.75 7.30228 12.1977 7.75 12.75 7.75H16.75C17.3023 7.75 17.75 7.30228 17.75 6.75C17.75 6.19772 17.3023 5.75 16.75 5.75H12.75Z" fill="white"/>
</svg>
