<svg width="32" height="32" viewBox="0 0 32 32" fill="none" xmlns="http://www.w3.org/2000/svg">
<path d="M20.6238 9.25301H18.194L18.884 3.73629C18.9141 3.48629 18.78 3.24233 18.548 3.13839C18.3206 3.03447 18.0464 3.08869 17.8777 3.27695L10.9364 10.9878C10.7827 11.158 10.7436 11.4004 10.84 11.6083C10.9364 11.8161 11.1412 11.9516 11.3687 11.9516H13.7985L13.1086 17.4684C13.0784 17.7184 13.2125 17.9623 13.4445 18.0663C13.5213 18.1009 13.6026 18.1205 13.684 18.1205C13.8467 18.1205 14.0003 18.0542 14.1163 17.9277L21.0576 10.2169C21.2113 10.0467 21.2504 9.80423 21.154 9.59638C21.0561 9.38855 20.8513 9.25301 20.6238 9.25301ZM14.4838 15.7876L15.0276 11.4456C15.0472 11.2799 14.9975 11.1143 14.889 10.9908C14.7776 10.8673 14.6224 10.7935 14.4537 10.7935H12.6687L17.5087 5.41555L16.9649 9.75752C16.9453 9.92319 16.995 10.0889 17.1035 10.2123C17.2149 10.3358 17.3701 10.4096 17.5388 10.4096H19.3238L14.4838 15.7876ZM26.601 10.6024C26.601 4.75759 21.8424 0 15.9963 0C10.1501 0 5.39146 4.75759 5.39146 10.6024C5.39146 16.4472 10.1501 21.2048 15.9963 21.2048C21.8424 21.2048 26.601 16.4472 26.601 10.6024ZM15.9963 20.0482C10.7856 20.0482 6.54835 15.8119 6.54835 10.6024C6.54835 5.39296 10.7856 1.15663 15.9963 1.15663C21.2069 1.15663 25.4442 5.39296 25.4442 10.6024C25.4442 15.8119 21.2069 20.0482 15.9963 20.0482ZM31.9998 14.4578V22.9351C31.9998 24.0872 31.5524 25.1671 30.739 25.9803L26.9716 29.7468C26.7366 29.9818 26.6056 30.2981 26.6056 30.6339V31.4216C26.6056 31.7408 26.3465 31.9999 26.0271 31.9999C25.7078 31.9999 25.4487 31.7408 25.4487 31.4216V30.6384C25.4487 29.9939 25.6988 29.3899 26.1537 28.9336L29.9211 25.1671C30.5146 24.5737 30.846 23.7785 30.846 22.9382L30.8475 14.4578C30.8475 13.9262 30.4151 13.4939 29.8834 13.4939C29.3516 13.4939 28.9193 13.9262 28.9193 14.4578V21.3975C28.9193 21.4518 28.9118 21.5015 28.8967 21.5512C28.8576 22.1024 28.6376 22.646 28.2219 23.0662L24.8973 26.4322C24.6744 26.6596 24.3069 26.6641 24.0794 26.4367C23.8519 26.2138 23.8519 25.8464 24.0749 25.6189L27.3994 22.253C27.8769 21.7665 27.8769 20.9804 27.3949 20.4984L27.2488 20.3524C27.0138 20.1174 26.7004 19.9864 26.3691 19.9864H26.3645C26.0286 19.9864 25.7168 20.1174 25.4818 20.3569L19.7984 26.113C19.2124 26.7064 18.8886 27.4925 18.8886 28.3254V31.4217C18.8886 31.741 18.6295 32.0001 18.3101 32.0001C17.9908 32.0001 17.7317 31.741 17.7317 31.4217V28.3254C17.7317 27.1838 18.1715 26.1085 18.9729 25.2983L24.649 19.5421C25.1009 19.0828 25.705 18.8282 26.3497 18.8282H26.3572C26.8664 18.8282 27.3484 18.9864 27.7536 19.2801V14.4577C27.7536 13.289 28.7057 12.3372 29.8746 12.3372C31.0435 12.3372 31.9998 13.2892 31.9998 14.4578ZM13.0196 25.2997C13.821 26.1099 14.2608 27.1852 14.2608 28.3268V31.4216C14.2608 31.7409 14.0018 32 13.6824 32C13.3631 32 13.104 31.7409 13.104 31.4216V28.3253C13.104 27.4924 12.7801 26.7063 12.1941 26.1129L6.51804 20.3568C6.28304 20.1173 5.96971 19.9863 5.6353 19.9863H5.63078C5.29938 19.9863 4.98605 20.1173 4.75108 20.3523L4.60496 20.4983C4.12293 20.9803 4.11842 21.7664 4.60044 22.2529L7.92499 25.6188C8.14793 25.8463 8.14793 26.2122 7.92047 26.4366C7.69301 26.6595 7.32695 26.6595 7.10251 26.4321L3.77797 23.0661C3.36222 22.6414 3.1423 22.1023 3.10312 21.5511C3.09107 21.5014 3.08052 21.4502 3.08052 21.3974L3.08203 14.4577C3.08203 13.9261 2.6497 13.4938 2.11796 13.4938C1.58621 13.4938 1.15389 13.9261 1.15389 14.4577V22.935C1.15389 23.7754 1.48227 24.569 2.07878 25.1639L5.84618 28.9304C6.3011 29.3853 6.55114 29.9907 6.55114 30.6353L6.55265 31.4214C6.55265 31.7407 6.29355 31.9997 5.97421 31.9997C5.65486 31.9997 5.39577 31.7407 5.39577 31.4214V30.6383C5.39577 30.3025 5.26471 29.9862 5.02972 29.7513L1.26232 25.9847C0.448874 25.1714 0.00150673 24.0871 0.00150673 22.9395L0 14.4576C0 13.289 0.95204 12.3371 2.12096 12.3371C3.28988 12.3371 4.24192 13.289 4.24192 14.4576V19.2815C4.64713 18.9924 5.12917 18.8297 5.63832 18.8297H5.64585C6.29058 18.8342 6.89463 19.0842 7.34655 19.5436L13.0196 25.2997Z" fill="white"/>
</svg>
