<svg width="23" height="19" viewBox="0 0 23 19" fill="none" xmlns="http://www.w3.org/2000/svg">
<path d="M13.0647 12.7197C13.6348 13.028 14.5292 13.5116 15.1409 14.0861C15.5219 14.4439 15.9159 14.9432 15.9883 15.5782C16.0665 16.2653 15.7485 16.8856 15.1772 17.4078C14.2182 18.2844 13.0522 19 11.5399 19H4.46015C2.94779 19 1.78177 18.2844 0.822798 17.4078C0.251481 16.8856 -0.0665422 16.2653 0.0117385 15.5782C0.0840828 14.9432 0.478131 14.4439 0.859058 14.0861C1.47085 13.5116 2.36511 13.028 2.93523 12.7197C3.06216 12.6511 3.17304 12.5911 3.26114 12.5408C6.16339 10.8828 9.83661 10.8828 12.7389 12.5408C12.8269 12.5911 12.9378 12.6511 13.0647 12.7197Z" fill="white"/>
<path d="M3.09668 4.87838C3.09668 2.18412 5.29187 0 7.99977 0C10.7077 0 12.9029 2.18412 12.9029 4.87838C12.9029 7.57263 10.7077 9.75676 7.99977 9.75676C5.29187 9.75676 3.09668 7.57263 3.09668 4.87838Z" fill="white"/>
<path d="M13.2776 8.46558C13.072 8.74071 12.9692 8.87828 13.0081 9.01445C13.0471 9.15061 13.1841 9.21284 13.4581 9.33729C14.0282 9.59626 14.6712 9.74194 15.3515 9.74194C17.6982 9.74194 19.6005 8.00884 19.6005 5.87097C19.6005 3.73309 17.6982 2 15.3515 2C15.0956 2 14.845 2.02061 14.6016 2.06011C14.3001 2.10902 14.1494 2.13347 14.0698 2.25422C13.9902 2.37497 14.0465 2.53357 14.1592 2.85075C14.3816 3.47695 14.5017 4.14504 14.5017 4.83871C14.5017 6.18342 14.0502 7.43204 13.2776 8.46558Z" fill="white"/>
<path d="M18.393 18C19.9249 18 21.1164 17.4038 22.1072 16.6596C22.6944 16.2186 23.0791 15.6506 22.9862 14.9806C22.9027 14.3788 22.4563 13.9309 22.0711 13.6336C21.44 13.1466 20.5193 12.7377 19.9392 12.48C19.8111 12.4231 19.6996 12.3735 19.6114 12.3322C18.481 11.8015 17.2373 11.4735 15.9669 11.3483C15.1476 11.2676 14.738 11.2272 14.6443 11.4501C14.5507 11.673 14.9155 11.9118 15.6451 12.3893C15.9221 12.5707 16.1902 12.765 16.4254 12.9673C16.9549 13.4226 17.7313 14.2422 17.8777 15.4186C17.9456 15.9638 17.867 16.4661 17.6903 16.9199C17.4799 17.4603 17.3747 17.7305 17.4657 17.8586C17.4715 17.8668 17.4751 17.8713 17.4816 17.8791C17.5837 18 17.8534 18 18.393 18Z" fill="white"/>
</svg>
