<svg width="28" height="34" viewBox="0 0 28 34" fill="none" xmlns="http://www.w3.org/2000/svg">
<path d="M19.5292 1.21087C18.8233 0.504988 17.6729 0.504988 16.9671 1.21087L10.2986 7.87929C8.68773 9.49019 8.26388 11.8436 9.01438 13.8514L6.99558 15.8702C6.66575 16.2001 6.48093 16.6414 6.48093 17.1099C6.48093 17.4238 6.57016 17.7217 6.72153 17.9862L3.83752 22.0127L3.33241 22.7998C3.03923 23.2571 3.09978 23.8196 3.48378 24.1988C3.70367 24.4187 3.98571 24.5334 4.27091 24.5334C4.47965 24.5334 4.69155 24.4729 4.88277 24.3502L5.68585 23.8324L9.69478 20.9611C9.95928 21.1124 10.2572 21.2017 10.5679 21.2017C11.0364 21.2017 11.4778 21.0184 11.8076 20.687L13.8264 18.6682C14.4669 18.9088 15.1394 19.0315 15.8133 19.0315C17.257 19.0315 18.7005 18.4802 19.7984 17.3839L26.4713 10.7155C27.1772 10.0096 27.1772 8.85922 26.4713 8.15338L19.5292 1.21087ZM5.22397 23.1598L4.43684 23.6649C4.24563 23.7876 4.09904 23.6649 4.05761 23.6235C4.01619 23.5821 3.89509 23.4355 4.01619 23.2443L4.51334 22.4731L7.27147 18.6267L9.05764 20.4128L5.22397 23.1598ZM11.2324 20.1132C11.0571 20.2885 10.8197 20.3873 10.568 20.3873C10.3146 20.3873 10.0788 20.2901 9.90353 20.1132L7.57403 17.7837C7.39398 17.6037 7.29678 17.3679 7.29997 17.1193C7.29997 16.866 7.39716 16.6302 7.57403 16.4549L9.3857 14.6432C9.63108 15.0798 9.93221 15.4877 10.3035 15.859L11.8331 17.3886C12.2044 17.7599 12.6123 18.061 13.0489 18.3064L11.2324 20.1132ZM25.8978 10.1404L19.2277 16.8055C17.3475 18.6857 14.2884 18.6857 12.408 16.8055L10.8783 15.2759C8.99815 13.3957 8.99815 10.3366 10.8783 8.45615L17.5484 1.78609C17.7444 1.59011 17.9977 1.4961 18.2543 1.4961C18.5108 1.4961 18.7642 1.59329 18.9602 1.78609L25.9027 8.72863C26.2851 9.11582 26.285 9.74843 25.8978 10.1404Z" fill="white" stroke="white" stroke-width="0.36"/>
<path d="M11.5141 9.63336C11.3548 9.47402 11.0983 9.47402 10.9389 9.63336C10.343 10.2293 10.0132 11.0244 10.0132 11.8689C10.0132 12.7134 10.343 13.5053 10.9389 14.1044C11.0202 14.1857 11.1222 14.2223 11.2289 14.2223C11.3357 14.2223 11.4377 14.1809 11.5189 14.1044C11.6782 13.9451 11.6782 13.6885 11.5189 13.5292C11.0744 13.0846 10.8338 12.4967 10.8338 11.8737C10.8338 11.2491 11.0791 10.6579 11.5189 10.2181C11.6735 10.0492 11.6735 9.79268 11.5141 9.63336Z" fill="white" stroke="white" stroke-width="0.36"/>
<path d="M3.75656 25.4445C3.63069 25.4445 3.50799 25.5051 3.4347 25.6039C3.18614 25.9305 1 28.8352 1 30.3441C1 31.9805 2.23644 33.3141 3.75813 33.3141C5.27982 33.3141 6.51626 31.9805 6.51626 30.3441C6.51626 28.8352 4.33013 25.9306 4.08156 25.6039C4.00029 25.5019 3.88244 25.4445 3.75656 25.4445ZM3.75656 32.4968C2.68422 32.4968 1.81424 31.5296 1.81424 30.3426C1.81424 29.4455 3.01724 27.5733 3.75656 26.5376C4.49907 27.5733 5.69888 29.4455 5.69888 30.3426C5.69729 31.5296 4.82572 32.4968 3.75656 32.4968Z" fill="white" stroke="white" stroke-width="0.36"/>
<path d="M3.18397 30.3426C3.18397 30.1179 3.00073 29.9347 2.77607 29.9347C2.5514 29.9347 2.36816 30.1179 2.36816 30.3426C2.36816 31.2238 2.98797 31.9376 3.75439 31.9376C3.97905 31.9376 4.16229 31.7543 4.16229 31.5297C4.16229 31.305 3.97905 31.1218 3.75439 31.1218C3.44527 31.1218 3.18397 30.768 3.18397 30.3426Z" fill="white" stroke="white" stroke-width="0.36"/>
</svg>
