<svg width="34" height="34" viewBox="0 0 34 34" fill="none" xmlns="http://www.w3.org/2000/svg">
<path d="M11.7643 17.0276C12.3772 17.1954 12.9616 17.4384 13.5119 17.7525L14.5614 16.8713C14.6893 16.7647 14.8756 16.7747 14.9936 16.8898L16.5607 18.456C16.7598 18.0211 17.1977 17.7283 17.6926 17.7283H18.3055L18.9112 16.01H15.544C14.0566 16.01 12.8422 14.7934 12.8422 13.3067V12.5904H6.9522C6.3123 12.5904 5.78046 12.0645 5.78046 11.4221L5.78188 3.86103C5.78188 3.21862 6.31227 2.68988 6.95362 2.68988H13.0398C13.4465 1.68931 14.4277 1 15.5439 1H30.2886C31.776 1 32.9904 2.21663 32.9904 3.70043V9.47357C32.9904 9.55317 32.9591 9.6356 32.8979 9.69814L26.8347 15.7711L27.5257 17.7268C28.1116 17.7268 28.5808 17.6543 29.0188 18.0934C29.8052 18.878 29.2364 20.2168 28.1372 20.2168L17.6914 20.2182C17.3444 20.2182 17.0316 20.0775 16.8041 19.8473L16.2552 20.4983C16.5709 21.0483 16.8155 21.6324 16.9804 22.245L18.3455 22.3644C18.5133 22.3786 18.6384 22.5179 18.6384 22.6828V25.6902C18.6384 25.8593 18.5076 25.9986 18.3398 26.0085L16.9804 26.1279C16.8154 26.7405 16.5709 27.3246 16.2566 27.8747L17.1382 28.9236C17.2449 29.0515 17.2349 29.2391 17.1183 29.3556L14.991 31.4819C14.8687 31.6041 14.6696 31.6069 14.5459 31.4876L13.5107 30.6177C12.9604 30.9333 12.3759 31.1777 11.7631 31.3426L11.6436 32.707C11.6294 32.8747 11.4886 32.9998 11.3251 32.9998H8.31617C8.14695 32.9998 8.00759 32.8691 7.9948 32.7013L7.87819 31.3454C7.26532 31.1777 6.67803 30.9347 6.13056 30.6206L5.08114 31.5018C4.95316 31.6084 4.76546 31.5984 4.64886 31.4833L2.52154 29.3571C2.39925 29.2348 2.39641 29.0358 2.51301 28.9122L3.38326 27.8775C3.06758 27.3274 2.82586 26.7433 2.65804 26.1307L1.29293 26.0113C1.12798 25.9971 1 25.8578 1 25.693V22.6856C1 22.5164 1.13367 22.3771 1.29862 22.3672L2.65805 22.2478C2.823 21.6352 3.06758 21.0483 3.38327 20.5011L2.50162 19.4522C2.39355 19.3243 2.40493 19.1366 2.51869 19.0201L4.646 16.8939C4.76687 16.7716 4.96453 16.7688 5.0911 16.8882L6.12633 17.7566C6.67521 17.4425 7.26108 17.1994 7.87396 17.0317L7.9934 15.6701C8.00762 15.5024 8.14698 15.3759 8.31193 15.3773H11.3208C11.4901 15.3773 11.6294 15.5081 11.6394 15.673L11.7643 17.0276ZM1.64392 19.026C1.64392 19.4466 1.00403 19.4466 1.00403 19.026V7.64013C1.00403 7.46247 1.14623 7.31892 1.3254 7.31892H4.9828C5.40369 7.31892 5.40369 7.95849 4.9828 7.95849L1.64396 7.95991L1.64392 19.026ZM13.5575 10.7259C13.1366 10.7259 13.1366 10.0863 13.5575 10.0863H15.2639C15.6848 10.0863 15.6848 10.7259 15.2639 10.7259H13.5575ZM13.5774 3.33255V7.03942C13.5774 7.25545 13.3598 7.43593 13.1139 7.32367L11.3662 6.63011L9.593 7.33506C9.38113 7.41749 9.15504 7.25831 9.15504 7.03943V3.33257H6.95237C6.65802 3.33257 6.42198 3.56992 6.42198 3.86269V11.4223C6.42198 11.7123 6.65803 11.951 6.95237 11.951C9.92434 11.951 12.8977 11.9453 15.8711 11.9453C16.1228 11.9013 16.3105 11.6796 16.3105 11.4237V3.86119C16.3105 3.56841 16.0744 3.33107 15.7801 3.33107H13.5774V3.33255ZM9.79333 3.33255V6.5702L11.2494 5.99176C11.322 5.96333 11.4044 5.96049 11.4827 5.99176L12.9388 6.5702L12.9373 3.33255H9.79333ZM16.8249 11.9426H26.1473V11.8559C26.1473 10.3693 27.3617 9.15548 28.8491 9.15548H32.3501L32.3515 3.70215C32.3515 2.57081 31.4201 1.63845 30.2868 1.63845L15.5421 1.63988C14.7842 1.63988 14.1059 2.05772 13.7461 2.69161H15.7767C16.4166 2.69161 16.9485 3.22031 16.9485 3.86276V11.4224C16.9499 11.6086 16.9045 11.7863 16.8249 11.9426ZM13.479 12.5907V13.307C13.479 14.4412 14.409 15.3707 15.5437 15.3707H26.149V12.5836C21.9255 12.5822 17.7024 12.5907 13.479 12.5907ZM26.5953 22.3036C26.5953 22.7242 25.9554 22.7242 25.9554 22.3036V21.0244C25.9554 20.6037 26.5953 20.6037 26.5953 21.0244V22.3036ZM31.6247 27.2268V28.6281C32.0343 28.6281 32.3556 28.6026 32.6912 28.9366C32.8804 29.127 32.9998 29.39 32.9998 29.6799V31.8829C32.9998 32.4613 32.5263 32.9346 31.9475 32.9346H20.6073C20.0271 32.9346 19.555 32.4613 19.555 31.8829V29.6799C19.555 29.1 20.0272 28.6282 20.6073 28.6282H20.9287V27.2268C20.5191 27.2268 20.1992 27.2524 19.865 26.9184C19.6745 26.7293 19.5564 26.465 19.5564 26.175V23.972C19.5564 23.3936 20.0286 22.9203 20.6087 22.9203L31.9464 22.9189C32.5251 22.9189 32.9987 23.3922 32.9987 23.9706V26.1736C32.9987 26.7535 32.5251 27.2253 31.9464 27.2253L31.6247 27.2268ZM30.9848 28.6281V27.2268H21.5671V28.6281H30.9848ZM21.6482 25.3933C21.2273 25.3933 21.2273 24.7538 21.6482 24.7538H22.8001C23.2209 24.7538 23.2209 25.3933 22.8001 25.3933H21.6482ZM24.5917 25.3933C24.1708 25.3933 24.1708 24.7538 24.5917 24.7538H30.904C31.3249 24.7538 31.3249 25.3933 30.904 25.3933H24.5917ZM20.6074 26.5872H31.9462C32.1709 26.5872 32.3572 26.3996 32.3572 26.175V23.972C32.3572 23.7475 32.1723 23.5613 31.9462 23.5613H20.6074C20.3799 23.5613 20.1951 23.7461 20.1951 23.972V26.175C20.1951 26.3996 20.3799 26.5872 20.6074 26.5872ZM21.6483 31.1011C21.2274 31.1011 21.2274 30.4615 21.6483 30.4615H22.8002C23.2211 30.4615 23.2211 31.1011 22.8002 31.1011H21.6483ZM24.5918 31.1011C24.1709 31.1011 24.1709 30.4615 24.5918 30.4615H30.9041C31.325 30.4615 31.325 31.1011 30.9041 31.1011H24.5918ZM20.6075 32.2949H31.9463C32.171 32.2949 32.3573 32.1101 32.3573 31.8842V29.6812C32.3573 29.4566 32.1724 29.269 31.9463 29.269H20.6075C20.38 29.269 20.1952 29.4566 20.1952 29.6812V31.8842C20.1952 32.1101 20.38 32.2949 20.6075 32.2949ZM8.32993 24.2106C8.07824 23.8738 8.59016 23.4914 8.84183 23.8269L9.43338 24.6185L10.8198 23.0324C10.935 22.8988 11.1355 22.8874 11.2692 23.0011C11.4028 23.1177 11.4142 23.3195 11.299 23.4502L9.60405 25.3803C9.46327 25.4855 9.26277 25.4571 9.15753 25.315L8.32993 24.2106ZM22.3196 14.2161C21.8987 14.2161 21.8987 13.5766 22.3196 13.5766H23.5126C23.9335 13.5766 23.9335 14.2161 23.5126 14.2161H22.3196ZM18.9822 17.7281H26.8499L26.2441 16.0097H19.5893L18.9822 17.7281ZM17.691 19.58H28.1382C28.9445 19.58 28.926 18.3691 28.1382 18.3691H17.691C16.8548 18.3691 17.0283 19.58 17.691 19.58ZM31.9023 9.79326H28.8507C27.716 9.79326 26.786 10.7228 26.786 11.857V14.9184L31.9023 9.79326ZM12.4155 17.923C12.0913 17.788 11.7528 17.6772 11.4002 17.5947C11.2651 17.5663 11.1613 17.454 11.1485 17.3076L11.0333 16.01H8.61023L8.49647 17.3076C8.48509 17.4426 8.38982 17.5592 8.25046 17.5919C7.89781 17.6772 7.5551 17.788 7.22947 17.923C6.89815 18.0595 6.58248 18.2215 6.28525 18.4034C6.16865 18.4859 6.00939 18.483 5.89421 18.3864L4.89455 17.5478L3.18249 19.2619L4.02147 20.2596C4.10679 20.3619 4.12243 20.5126 4.04706 20.632C3.69157 21.209 3.37874 21.9367 3.228 22.6061C3.19956 22.7411 3.0858 22.8477 2.94076 22.8591L1.6439 22.9728V25.3946L2.94076 25.5098C3.07442 25.5197 3.19245 25.6163 3.22515 25.7542C3.30763 26.1095 3.42139 26.4507 3.55648 26.7775C3.69299 27.1087 3.85509 27.4228 4.03711 27.7213C4.11958 27.8364 4.11674 27.997 4.02004 28.1107L3.18106 29.1099L4.89313 30.8239L5.89279 29.9853C5.99517 29.8986 6.14448 29.8844 6.26534 29.9598C6.84265 30.3151 7.57071 30.6277 8.24049 30.7784C8.37557 30.8068 8.48222 30.9191 8.4936 31.0655L8.60736 32.3631H11.0304L11.1456 31.0655C11.1555 30.9305 11.2522 30.8139 11.3902 30.7813C11.7457 30.696 12.087 30.5851 12.414 30.4501C12.7453 30.3137 13.0596 30.1516 13.3582 29.9697C13.4734 29.8873 13.6341 29.8901 13.7478 29.9839L14.7475 30.8239L16.4596 29.1099L15.6234 28.1107C15.5367 28.0098 15.5225 27.8591 15.595 27.7398C15.9519 27.1627 16.2662 26.435 16.4155 25.7642C16.4439 25.6306 16.5563 25.5254 16.7027 25.5126L17.9996 25.3975V22.9757L16.7027 22.862C16.5676 22.8506 16.451 22.7554 16.4183 22.6175C16.333 22.2622 16.2221 21.9211 16.087 21.5942C15.9505 21.263 15.7884 20.9475 15.6064 20.6504C15.5239 20.5339 15.5267 20.3747 15.6206 20.2596L16.4596 19.2619L14.7475 17.5478L13.7478 18.3864C13.6455 18.4731 13.4961 18.4873 13.3753 18.412C13.0724 18.2286 12.7525 18.0638 12.4155 17.923ZM9.82176 19.4068C12.4638 19.4068 14.6055 21.5458 14.6055 24.1852C14.6055 26.8259 12.4654 28.9665 9.82176 28.9665C7.18113 28.9665 5.03805 26.8275 5.03805 24.1852C5.03948 21.5459 7.18098 19.4068 9.82176 19.4068ZM12.7525 21.2573C11.1343 19.6399 8.51227 19.6399 6.8938 21.2573C5.27533 22.8747 5.27558 25.4954 6.8938 27.1131C8.51202 28.7276 11.134 28.7276 12.7525 27.1131C14.3679 25.4957 14.3679 22.875 12.7525 21.2573Z" fill="white" stroke="white" stroke-width="0.36"/>
</svg>
