<svg width="22" height="20" viewBox="0 0 22 20" fill="none" xmlns="http://www.w3.org/2000/svg">
<path d="M11.7886 0.480667C13.6251 0.480659 15.0654 0.480948 16.2075 0.604691C17.3729 0.730984 18.3173 0.993533 19.1235 1.5793C19.6115 1.93384 20.0405 2.36287 20.395 2.85078C20.9808 3.65702 21.2433 4.60143 21.3696 5.7668C21.4934 6.90892 21.4937 8.34926 21.4937 10.1857V10.2756C21.4937 12.1121 21.4934 13.5524 21.3696 14.6945C21.2433 15.8599 20.9808 16.8043 20.395 17.6105C20.0405 18.0985 19.6115 18.5275 19.1235 18.882C18.3173 19.4678 17.3729 19.7304 16.2075 19.8566C15.0654 19.9804 13.6251 19.9807 11.7886 19.9807H9.69873C7.86224 19.9807 6.4219 19.9804 5.27979 19.8566C4.11442 19.7304 3.17001 19.4678 2.36377 18.882C1.87585 18.5275 1.44683 18.0985 1.09229 17.6105C0.506519 16.8043 0.243969 15.8599 0.117676 14.6945C-0.00606698 13.5524 -0.00635581 12.1121 -0.00634766 10.2756V10.1857C-0.00635581 8.34921 -0.00606698 6.90894 0.117676 5.7668C0.243969 4.60143 0.506519 3.65702 1.09229 2.85078C1.44683 2.36287 1.87585 1.93384 2.36377 1.5793C3.17001 0.993534 4.11442 0.730984 5.27979 0.604691C6.42192 0.480948 7.8622 0.480659 9.69873 0.480667H11.7886ZM7.20264 11.4807C5.56766 11.5049 3.82479 12.2896 3.06494 13.9123C2.88932 14.2874 3.05113 14.7338 3.42627 14.9094C3.52913 14.9575 3.63712 14.9807 3.74365 14.9807H10.7437C10.8504 14.9808 10.959 14.9576 11.062 14.9094C11.4369 14.7337 11.5989 14.2873 11.4233 13.9123C10.6206 12.1977 8.84691 11.4564 7.20264 11.4807ZM12.7437 9.73067C12.1914 9.73067 11.7437 10.1784 11.7437 10.7307C11.7437 11.283 12.1914 11.7307 12.7437 11.7307H15.7437C16.2959 11.7307 16.7437 11.283 16.7437 10.7307C16.7437 10.1784 16.2959 9.73067 15.7437 9.73067H12.7437ZM7.24365 4.48067C5.72487 4.48067 4.49365 5.71188 4.49365 7.23067C4.49372 8.74939 5.72491 9.98067 7.24365 9.98067C8.76239 9.98067 9.99359 8.74939 9.99365 7.23067C9.99365 5.71188 8.76243 4.48067 7.24365 4.48067ZM12.7437 6.23067C12.1914 6.23067 11.7437 6.67838 11.7437 7.23067C11.7437 7.78295 12.1914 8.23067 12.7437 8.23067H16.7437C17.2959 8.23067 17.7437 7.78295 17.7437 7.23067C17.7437 6.67838 17.2959 6.23067 16.7437 6.23067H12.7437Z" fill="white"/>
</svg>
