<svg width="23" height="22" viewBox="0 0 23 22" fill="none" xmlns="http://www.w3.org/2000/svg">
<path d="M8.16065 16.2608C8.16065 16.4634 8.16065 16.5647 8.20834 16.6389C8.25604 16.713 8.35516 16.7582 8.55339 16.8485C8.77466 16.9493 9.05544 17.0873 9.43433 17.2757L9.73331 17.4244C10.1465 17.6298 10.3532 17.7326 10.4532 17.6507C10.5532 17.5689 10.49 17.3333 10.3636 16.8622C10.0457 15.6775 10.0642 14.3367 10.6864 12.882C11.2618 11.5369 12.2534 10.4704 13.4524 9.7694C13.5559 9.70893 13.6076 9.6787 13.6341 9.63247C13.6606 9.58623 13.6606 9.52872 13.6606 9.41368V3.15685C13.6606 2.976 13.6606 2.88557 13.6157 2.81297C13.5707 2.74037 13.4897 2.70011 13.3278 2.61959L10.5532 1.24C9.88423 0.907352 9.33617 0.634833 8.86296 0.452254C8.57092 0.339574 8.4249 0.283234 8.29608 0.367747L8.28586 0.374756C8.16065 0.464516 8.16065 0.633508 8.16065 0.971491L8.16065 16.2608Z" fill="white"/>
<path d="M22.1606 10.1745C22.1606 10.6274 22.1606 10.8538 22.0439 10.9073C21.9272 10.9607 21.7464 10.8048 21.3849 10.4928C20.1512 9.42842 18.5495 8.82705 16.9121 8.82705C16.4933 8.82705 16.0768 8.8664 15.6683 8.94277C15.4262 8.98802 15.3051 9.01065 15.2329 8.95067C15.1606 8.89069 15.1606 8.77283 15.1606 8.53711L15.1606 3.4167C15.1606 3.32217 15.2375 3.24562 15.332 3.24562L17.4636 3.24562C18.3612 3.24559 19.1114 3.24556 19.7073 3.32745C20.3381 3.41413 20.9062 3.60503 21.3609 4.06984C21.8135 4.53236 21.9972 5.10625 22.081 5.74313C22.1607 6.34886 22.1607 7.11273 22.1606 8.03268V10.1745Z" fill="white"/>
<path d="M6.66065 1.03442C6.66065 0.706893 6.66065 0.543127 6.5448 0.453047C6.53145 0.442666 6.51346 0.43116 6.49844 0.423392C6.36808 0.35599 6.23063 0.419471 5.95574 0.546433C5.4949 0.759269 4.96496 1.0667 4.31788 1.44208L3.02934 2.18956C2.56127 2.46107 2.16311 2.69202 1.85148 2.91705C1.51913 3.15705 1.2377 3.42255 1.03062 3.78604C0.824045 4.14865 0.737922 4.52728 0.698109 4.93758C0.660619 5.32395 0.660631 5.79029 0.660645 6.34143V14.5805C0.660632 15.3096 0.660621 15.9125 0.707039 16.384C0.753911 16.8601 0.857401 17.3384 1.16898 17.7249C1.50867 18.1464 1.98753 18.4329 2.52088 18.5281C3.01399 18.6161 3.48135 18.4681 3.91214 18.2737C4.33806 18.0814 4.90983 17.7497 5.52887 17.3905C5.81198 17.2263 6.06524 17.0794 6.30156 16.9573C6.4826 16.8637 6.57312 16.817 6.61688 16.7451C6.66065 16.6732 6.66065 16.5786 6.66065 16.3895L6.66065 1.03442Z" fill="white"/>
<path d="M16.9116 10.3269C18.9659 10.3271 20.9311 11.5405 21.7573 13.4715C22.5294 15.2763 22.1027 16.826 21.2524 18.114C20.5609 19.1616 19.5484 20.0932 18.6763 20.8963C18.5231 21.0373 18.374 21.1743 18.2319 21.3074C17.8739 21.6427 17.4002 21.8268 16.9116 21.8269C16.4229 21.8269 15.9485 21.6428 15.5903 21.3074L15.5884 21.3064C15.4385 21.1653 15.2811 21.019 15.1187 20.8689L14.4526 20.2478C13.7754 19.6031 13.0852 18.8899 12.5718 18.114C11.7204 16.8272 11.292 15.2786 12.0649 13.4715C12.8912 11.5403 14.8571 10.3269 16.9116 10.3269ZM16.9019 13.5769C15.8022 13.5769 14.9106 14.4724 14.9106 15.5769C14.9106 16.6815 15.8022 17.5769 16.9019 17.5769H16.9194C18.0191 17.5769 18.9106 16.6815 18.9106 15.5769C18.9106 14.4724 18.0191 13.5769 16.9194 13.5769H16.9019Z" fill="white"/>
</svg>
