<svg width="30" height="34" viewBox="0 0 30 34" fill="none" xmlns="http://www.w3.org/2000/svg">
<path d="M26.8364 11.77C27.2424 11.77 27.5717 11.4448 27.5717 11.044V10.6571H28.7013C28.866 10.6571 28.9987 10.526 28.9987 10.3634V8.07704C28.9987 7.91444 28.866 7.78336 28.7013 7.78336H27.5717V7.23258C27.5717 6.83177 27.2411 6.50659 26.8364 6.50659H26.3616V1.29367C26.3616 1.13108 26.2289 1 26.0642 1C25.8995 1 25.7668 1.13108 25.7668 1.29367V6.50659H24.0462L24.0474 1.29367C24.0474 1.13108 23.9147 1 23.75 1C23.5854 1 23.4526 1.13108 23.4526 1.29367V6.50659H22.9778C22.5719 6.50659 22.2426 6.83177 22.2426 7.23258V7.78336H7.82129V7.23258C7.82129 6.83177 7.49197 6.50659 7.08606 6.50659H6.6444L6.64312 1.29367C6.64312 1.13108 6.51038 1 6.34571 1C6.18105 1 6.0483 1.13108 6.0483 1.29367V6.50659H4.32767L4.32895 1.29367C4.32895 1.13108 4.1962 1 4.03153 1C3.86687 1 3.73412 1.13108 3.73412 1.29367V6.50659H3.2261C2.82018 6.50659 2.49087 6.83177 2.49087 7.23258V7.78336H1.29741C1.13275 7.78336 1 7.91444 1 8.07704V10.3634C1 10.526 1.13275 10.6571 1.29741 10.6571H2.49087V11.044C2.49087 11.4448 2.82018 11.77 3.2261 11.77H3.73412V23.1261H3.2261C2.82018 23.1261 2.49087 23.4525 2.49087 23.852V24.3209H1.29741C1.13275 24.3209 1 24.452 1 24.6146V26.9009C1 27.0635 1.13275 27.1946 1.29741 27.1946H2.49087V27.6635C2.49087 28.0643 2.82018 28.3894 3.2261 28.3894H3.73412V32.7063C3.73412 32.8689 3.86687 33 4.03153 33C4.1962 33 4.32895 32.8689 4.32895 32.7063V28.3894H6.04958V32.7063C6.04958 32.8689 6.18233 33 6.34699 33C6.51165 33 6.6444 32.8689 6.6444 32.7063V28.3894H7.08606C7.49197 28.3894 7.82129 28.063 7.82129 27.6635V27.1946H22.2426V27.6635C22.2426 28.0643 22.5732 28.3894 22.9778 28.3894H23.4526V32.7063C23.4526 32.8689 23.5854 33 23.75 33C23.9147 33 24.0474 32.8689 24.0474 32.7063V28.3894H25.7681V32.7063C25.7681 32.8689 25.9008 33 26.0655 33C26.2301 33 26.3629 32.8689 26.3629 32.7063V28.3894H26.8377C27.2436 28.3894 27.573 28.063 27.573 27.6635V27.1946H28.7026C28.8673 27.1946 29 27.0635 29 26.9009V24.6146C29 24.452 28.8673 24.3209 28.7026 24.3209H27.573V23.852C27.573 23.4512 27.2424 23.1261 26.8377 23.1261H26.3629V11.77H26.8377H26.8364ZM28.4039 8.37074V10.0697H27.5717V8.37074H28.4039ZM22.8361 7.23262C22.8361 7.15574 22.8987 7.09272 22.9778 7.09272H26.8366C26.9145 7.09272 26.9783 7.15574 26.9783 7.23262V11.0429C26.9783 11.1198 26.9157 11.1828 26.8366 11.1828H22.9778C22.8999 11.1828 22.8361 11.1198 22.8361 11.0429V7.23262ZM17.5059 18.0557C17.5493 17.8729 17.5735 17.6838 17.5735 17.4885C17.5735 17.2881 17.5467 17.094 17.502 16.9062L23.4528 12.1647V22.7947L17.5059 18.0557ZM15.0334 19.4106C13.9599 19.4106 13.0868 18.5485 13.0868 17.4885C13.0868 16.4285 13.9599 15.5664 15.0334 15.5664C16.1069 15.5664 16.98 16.4285 16.98 17.4885C16.98 18.5485 16.1069 19.4106 15.0334 19.4106ZM6.6433 22.7972V12.162L12.5686 16.8835C12.5201 17.0776 12.4907 17.2793 12.4907 17.4885C12.4907 17.6914 12.5175 17.8893 12.5648 18.0783L6.6433 22.7972ZM17.2835 16.3262C17.1278 16.0338 16.9172 15.7767 16.6645 15.5662L22.2502 11.1145C22.2873 11.4812 22.5974 11.7686 22.9778 11.7686H23.0021L17.2835 16.3262ZM16.1373 15.2322C15.8029 15.0722 15.4289 14.9789 15.0332 14.9789C14.6451 14.9789 14.2788 15.0671 13.9495 15.2222L8.2196 10.6558H21.8802L16.1373 15.2322ZM7.81614 11.088L13.4186 15.5523C13.1633 15.7603 12.9501 16.0174 12.7931 16.3073L7.09623 11.7687C7.48172 11.7637 7.79317 11.465 7.81614 11.0894V11.088ZM12.7866 18.6566C12.9423 18.9478 13.1542 19.2062 13.4082 19.4154L7.82114 23.8672V23.8508C7.82114 23.4777 7.53522 23.1739 7.16888 23.1323L12.7864 18.6554L12.7866 18.6566ZM13.9367 19.7481C14.2698 19.9057 14.64 19.9977 15.0331 19.9977C15.434 19.9977 15.813 19.9032 16.1513 19.7381L21.9018 24.3208L8.19777 24.3196L13.9355 19.7468L13.9367 19.7481ZM22.2438 23.8395L16.6747 19.4016C16.9274 19.1899 17.1367 18.9302 17.2899 18.6378L22.928 23.1312C22.5502 23.1564 22.2502 23.4627 22.2438 23.8408V23.8395ZM22.2425 8.37077V10.0698H7.82123V8.37077H22.2425ZM1.59466 10.0698V8.37077H2.49073V10.0698H1.59466ZM3.08427 11.0441V7.23375C3.08427 7.15686 3.14809 7.09385 3.22595 7.09385H7.08476C7.16262 7.09385 7.22644 7.15686 7.22644 7.23375V11.0441C7.22644 11.1209 7.16262 11.184 7.08476 11.184H3.22595C3.14809 11.184 3.08427 11.1209 3.08427 11.0441ZM4.3288 11.77H6.04943V23.1261H4.3288V11.77ZM1.59466 26.606V24.907H2.49073V26.606H1.59466ZM7.22619 27.6622C7.22619 27.7391 7.16237 27.8021 7.0845 27.8021H3.2257C3.14783 27.8021 3.08401 27.7404 3.08401 27.6622V23.8519C3.08401 23.775 3.14783 23.712 3.2257 23.712H7.0845C7.16237 23.712 7.22619 23.7738 7.22619 23.8519V27.6622ZM7.821 26.606V24.907H22.2423V26.606H7.821ZM28.4035 24.907V26.606H27.5712V24.907H28.4035ZM26.9777 23.8508V27.6611C26.9777 27.738 26.9152 27.801 26.836 27.801H22.9772C22.8993 27.801 22.8355 27.7393 22.8355 27.6611V23.8508C22.8355 23.7739 22.8981 23.7109 22.9772 23.7109H26.836C26.9139 23.7109 26.9777 23.7727 26.9777 23.8508ZM25.7676 23.1248H24.047V11.7688H25.7676V23.1248Z" fill="white" stroke="white" stroke-width="0.48"/>
</svg>
