<svg width="32" height="26" viewBox="0 0 32 26" fill="none" xmlns="http://www.w3.org/2000/svg">
<path d="M32 5.90171C31.9913 5.66078 31.84 5.44811 31.6189 5.36332L16.1803 0.0301164C16.0625 -0.0100388 15.9374 -0.0100388 15.8196 0.0301164C15.8196 0.0301164 0.389597 5.36028 0.368 5.37056C0.155637 5.46276 0.0130923 5.66949 0 5.90593V10.3559V10.3544C0.0160001 10.5849 0.154181 10.7871 0.360728 10.8808L5.28301 12.7845L0.382697 14.4739C0.157242 14.5572 0.00597649 14.7729 0.000167614 15.0183V19.4682C0.0103495 19.7002 0.15144 19.9039 0.360895 19.9917L3.77327 21.3108L7.76874 22.8575L7.78474 22.8635C7.78474 22.8635 15.7991 25.9628 15.8326 25.9732V25.9747C15.8865 25.9926 15.9417 26 15.9985 26C16.0654 26 16.1323 25.9866 16.1963 25.9628L24.2107 22.8635L24.2267 22.8575L28.2251 21.3108L31.6346 19.9932C31.8484 19.9025 31.9895 19.6943 31.9982 19.4578V15.0125C31.9895 14.77 31.8382 14.5574 31.6157 14.4741L26.7139 12.7816L31.6361 10.878H31.6347C31.8485 10.7888 31.991 10.5791 31.9983 10.3426L32 5.90171ZM15.4384 15.4792L1.12544 9.94692V6.72263L15.4384 11.9397V15.4792ZM16.5613 11.9382L30.8742 6.71958V9.94387L16.5613 15.4762V11.9382ZM15.9998 1.17812L29.7263 5.9193L15.9998 10.9251L2.27337 5.9193L15.9998 1.17812ZM15.4384 21.0531V24.5942L12.5584 23.4803V20.0017L15.4384 21.0531ZM23.4442 18.5427V21.9335L20.5642 23.046V19.5956L23.4442 18.5427ZM30.8769 15.8315V19.0588L28.5686 19.9511V16.6733L30.8769 15.8315ZM27.4442 20.3854L24.5642 21.4978V18.1323L27.4442 17.0823V20.3854ZM19.4399 23.4788L16.5599 24.5927V21.0531L19.4399 20.0032V23.4788ZM11.434 23.0445L8.55403 21.9306V18.5398L11.434 19.5897V23.0445ZM7.43262 21.4978L4.55261 20.3854V17.0823L7.43262 18.1323V21.4978ZM3.42971 19.9511L1.12135 19.0588V15.8315L3.43261 16.6733L3.42971 19.9511ZM29.7279 15.0329L19.7817 18.6587L16 20.0388L12.2093 18.6558L2.27314 15.0329L6.93924 13.4223C6.93924 13.4223 15.8004 16.8488 15.8339 16.8592C15.9532 16.8964 16.0812 16.8919 16.1975 16.8473L25.0587 13.4208L29.7279 15.0329Z" fill="white"/>
</svg>
