<svg width="21" height="22" viewBox="0 0 21 22" fill="none" xmlns="http://www.w3.org/2000/svg">
<path d="M20.6769 13.3751C20.8842 13.887 20.6371 14.47 20.1252 14.6772C19.6912 14.8529 19.1671 15.2429 18.5953 15.816C18.0363 16.3762 17.4908 17.051 17.0062 17.7149C16.5237 18.376 16.1135 19.0096 15.8237 19.4789C15.6791 19.713 15.452 20.1023 15.3749 20.2345L15.374 20.2361C15.1893 20.5683 14.8322 20.7672 14.4525 20.7492C14.0728 20.7311 13.7362 20.4994 13.5838 20.1511C13.1932 19.2582 12.847 18.9147 12.6908 18.7957C12.6519 18.766 12.6231 18.749 12.606 18.74C12.1219 18.6702 11.75 18.2536 11.75 17.7503C11.75 17.198 12.1977 16.7503 12.75 16.7503C12.957 16.7503 13.1093 16.7978 13.2108 16.8309C13.4156 16.8978 13.6519 17.0136 13.9029 17.2048C14.1038 17.3579 14.3093 17.5554 14.5147 17.8087C14.766 17.4225 15.0621 16.986 15.3908 16.5357C15.9099 15.8245 16.5225 15.0618 17.1795 14.4033C17.8237 13.7577 18.5735 13.1477 19.3748 12.8233C19.8867 12.6161 20.4697 12.8631 20.6769 13.3751Z" fill="white"/>
<path fill-rule="evenodd" clip-rule="evenodd" d="M9.75 1.90911C9.08029 1.90911 8.4347 2.19019 6.59245 3.06293L3.74428 4.41222C2.93359 4.79627 2.4257 5.03958 2.10735 5.25001C2.4257 5.46044 2.93359 5.70376 3.74428 6.08781L4.81862 6.59676L12.4648 2.85388C10.9559 2.14463 10.363 1.90911 9.75 1.90911ZM14.6814 3.90326L7.0352 7.64615C8.54415 8.3554 9.13697 8.59092 9.75 8.59092C10.4197 8.59092 11.0653 8.30984 12.9075 7.4371L15.7557 6.08781C16.5664 5.70376 17.0743 5.46044 17.3927 5.25001C17.0743 5.03958 16.5664 4.79627 15.7557 4.41222L14.6814 3.90326ZM5.94088 1.25068C7.50551 0.508516 8.57754 1.52588e-05 9.75 1.52588e-05C10.9225 1.52588e-05 11.9945 0.508516 13.5591 1.25068C13.6242 1.28154 13.6901 1.31281 13.7569 1.34446L16.6712 2.72506C17.396 3.06833 18.035 3.371 18.4846 3.66831C18.9347 3.96598 19.5 4.45421 19.5 5.25001C19.5 6.04582 18.9347 6.53405 18.4846 6.83172C18.035 7.12903 17.396 7.4317 16.6712 7.77498L13.7569 9.15557C13.6901 9.18723 13.6242 9.21849 13.5591 9.24936C11.9945 9.99152 10.9225 10.5 9.75 10.5C8.57754 10.5 7.50552 9.99152 5.94089 9.24936C5.87582 9.21849 5.8099 9.18723 5.74309 9.15557L2.89491 7.80629C2.87279 7.79581 2.85075 7.78537 2.82878 7.77496C2.10402 7.43169 1.465 7.12903 1.01541 6.83172C0.565271 6.53405 0 6.04582 0 5.25001C0 4.45421 0.565271 3.96598 1.01541 3.66831C1.465 3.371 2.10402 3.06834 2.82878 2.72507C2.85075 2.71466 2.87279 2.70422 2.89491 2.69374L5.74309 1.34446C5.8099 1.31281 5.87581 1.28154 5.94088 1.25068Z" fill="white"/>
<path d="M9.75 21.5023C10.3691 21.5023 10.9649 21.3454 11.6826 21.0766C11.9547 20.9746 12.0913 20.9238 12.1387 20.7943C12.186 20.6648 12.1175 20.5433 11.9814 20.3012C11.9687 20.2786 11.9561 20.2569 11.9443 20.2367C11.9067 20.1724 11.888 20.1394 11.8545 20.1088C11.821 20.0782 11.7752 20.0563 11.6836 20.0131C10.8362 19.6128 10.25 18.7521 10.25 17.7523C10.25 16.3716 11.3693 15.2523 12.75 15.2523C13.198 15.2523 13.5318 15.3593 13.6768 15.4066C13.6942 15.4123 13.7119 15.4191 13.7295 15.4252C13.9794 15.5113 14.1045 15.5537 14.1973 15.5258C14.2901 15.4977 14.3623 15.4034 14.5059 15.2152C14.9812 14.592 15.5272 13.9375 16.1172 13.3461C16.816 12.6457 17.7359 11.8707 18.8125 11.435C18.8649 11.4138 18.9178 11.3938 18.9707 11.3764C19.2475 11.2852 19.3864 11.2402 19.4434 11.1615C19.5003 11.0828 19.5 10.9624 19.5 10.7221L19.5 5.25233C19.5 5.22305 19.4984 5.19383 19.4951 5.16542C19.4794 5.02854 19.4715 4.95967 19.3359 4.88515C19.2 4.81051 19.1005 4.85925 18.9023 4.95546L16.0186 6.35487L13.0977 7.76894C11.2298 8.67276 10.5076 9.00233 9.75 9.00233C8.99241 9.00233 8.27019 8.67276 6.40234 7.76894L3.48145 6.35487L0.597656 4.95546C0.399487 4.85925 0.299989 4.81051 0.164063 4.88515C0.0285111 4.95967 0.0206207 5.02854 0.00488281 5.16542C0.00161606 5.19383 2.39163e-08 5.22305 0 5.25233L0 15.9135C0 17.0339 0.817257 17.7795 1.82324 18.3832C2.84164 18.9943 4.5513 19.7164 6.44434 20.516C7.86321 21.1159 8.77803 21.5023 9.75 21.5023ZM6.4209 12.0863C6.2357 12.4567 5.78547 12.6073 5.41504 12.4223L3.41504 11.4223C3.04471 11.2371 2.89423 10.7868 3.0791 10.4164C3.26434 10.0459 3.71545 9.89522 4.08594 10.0805L6.08594 11.0805C6.45612 11.2657 6.60586 11.716 6.4209 12.0863Z" fill="white"/>
</svg>
