<svg width="22" height="23" viewBox="0 0 22 23" fill="none" xmlns="http://www.w3.org/2000/svg">
<path d="M3.48758 5.85579C2.99537 5.85573 2.54691 5.85568 2.18796 5.90816C1.7933 5.96585 1.37291 6.10384 1.05964 6.48634C0.74979 6.86467 0.692032 7.30295 0.703479 7.70145C0.714054 8.06961 0.789633 8.52018 0.873761 9.02172L2.09335 16.2969C2.286 17.4462 2.44183 18.3759 2.65627 19.1028C2.87906 19.858 3.18897 20.4839 3.7467 20.9671C4.3067 21.4523 4.96576 21.663 5.73556 21.7615C6.47206 21.8558 7.39249 21.8558 8.52364 21.8558H11.6434C11.8049 21.8558 11.8921 21.6615 11.7875 21.5384C11.7634 21.5101 11.7435 21.504 11.7094 21.4933L11.7048 21.4919C10.6887 21.1739 9.95215 20.2265 9.95215 19.1058C9.95215 17.7251 11.0714 16.6058 12.4521 16.6058C12.8648 16.6058 13.1717 16.6935 13.3088 16.7327L13.3108 16.7332C13.4679 16.7781 13.6322 16.8365 13.8016 16.911C14.0405 17.0161 14.1599 17.0686 14.2564 17.0468C14.3529 17.025 14.4303 16.9351 14.5852 16.7554C15.1908 16.0528 15.9843 15.1914 16.6751 14.5856C17.4746 13.8844 18.4812 13.1517 19.6175 12.7492C19.7212 12.7125 19.8258 12.683 19.9305 12.6605C20.1967 12.6034 20.3298 12.5748 20.3935 12.5082C20.4572 12.4415 20.4758 12.3306 20.513 12.109L21.0305 9.02169C21.1147 8.52016 21.1902 8.0696 21.2008 7.70145C21.2123 7.30295 21.1545 6.86467 20.8446 6.48634C20.5314 6.10384 20.111 5.96585 19.7163 5.90816C19.3574 5.85568 18.9089 5.85573 18.4167 5.85579H3.48758Z" fill="white"/>
<path fill-rule="evenodd" clip-rule="evenodd" d="M10.9521 2.35579C8.74301 2.35579 6.95215 4.14665 6.95215 6.35579V6.85579C6.95215 7.40807 6.50443 7.85579 5.95215 7.85579C5.39986 7.85579 4.95215 7.40807 4.95215 6.85579V6.35579C4.95215 3.04208 7.63844 0.355789 10.9521 0.355789C14.2659 0.355789 16.9521 3.04208 16.9521 6.35579V6.85579C16.9521 7.40807 16.5044 7.85579 15.9521 7.85579C15.3999 7.85579 14.9521 7.40807 14.9521 6.85579V6.35579C14.9521 4.14665 13.1613 2.35579 10.9521 2.35579Z" fill="white"/>
<path d="M21.3948 14.7722C21.5792 15.2928 21.3066 15.8643 20.786 16.0487C20.2524 16.2377 19.6359 16.6445 18.9828 17.2173C18.3401 17.7809 17.715 18.4578 17.1612 19.1217C16.6094 19.7832 16.1406 20.4169 15.8096 20.8859C15.6444 21.1199 15.3842 21.5102 15.2962 21.6423C15.1029 21.9464 14.7609 22.1232 14.401 22.1048C14.0411 22.0863 13.7189 21.8756 13.5577 21.5533C13.117 20.6719 12.7217 20.321 12.5224 20.1881C12.4381 20.1319 12.3812 20.1094 12.3585 20.1017C11.8501 20.0545 11.4521 19.6268 11.4521 19.1061C11.4521 18.5538 11.8999 18.1061 12.4521 18.1061C12.6514 18.1061 12.7955 18.1463 12.8987 18.1758C13.1066 18.2352 13.3574 18.3411 13.6318 18.524C13.9061 18.7069 14.1938 18.9596 14.4825 19.3055C14.7977 18.8747 15.1861 18.3671 15.6254 17.8405C16.2187 17.1293 16.9171 16.3687 17.6641 15.7136C18.4008 15.0676 19.2402 14.4744 20.1183 14.1634C20.6389 13.9791 21.2104 14.2516 21.3948 14.7722Z" fill="white"/>
</svg>
