<svg width="22" height="22" viewBox="0 0 22 22" fill="none" xmlns="http://www.w3.org/2000/svg">
<path fill-rule="evenodd" clip-rule="evenodd" d="M3.79605 2.61451C3.53112 2.57902 3.16522 2.57693 2.54482 2.57693H1.24365C0.691368 2.57693 0.243652 2.12922 0.243652 1.57693C0.243652 1.02465 0.691368 0.576933 1.24365 0.576933H2.54482C2.56407 0.576933 2.58327 0.576931 2.60242 0.576928C3.14551 0.576859 3.64783 0.576796 4.06156 0.632212C4.52263 0.69397 4.99654 0.837617 5.40376 1.21395C5.80485 1.58462 5.99224 2.04383 6.10544 2.49528C6.20967 2.9109 6.27486 3.42729 6.34728 4.00107C6.34955 4.01903 6.35182 4.03705 6.35411 4.05512L7.48149 12.9803C7.58909 13.832 7.66023 14.3816 7.76136 14.7849C7.85677 15.1654 7.94953 15.2846 8.01733 15.3473C8.07901 15.4043 8.18533 15.4773 8.53305 15.5239C8.91352 15.5748 9.42761 15.5769 10.2456 15.5769H20.2437C20.7959 15.5769 21.2437 16.0246 21.2437 16.5769C21.2437 17.1292 20.7959 17.5769 20.2437 17.5769L10.1835 17.5769C9.44639 17.577 8.79659 17.577 8.26754 17.5062C7.69092 17.4289 7.13412 17.2543 6.65992 16.8161C6.19184 16.3835 5.96444 15.8417 5.82143 15.2714C5.68744 14.7371 5.60274 14.0663 5.50456 13.2887L4.36987 4.30576C4.2884 3.66072 4.23684 3.2662 4.16551 2.98176C4.10139 2.72604 4.04955 2.68529 4.04648 2.68287C4.04641 2.68282 4.0465 2.68289 4.04648 2.68287C4.04115 2.67795 4.03443 2.67181 4.01025 2.66214C3.97933 2.64977 3.91653 2.63065 3.79605 2.61451Z" fill="white"/>
<path d="M8.74365 19.5769C8.74365 18.4724 9.63908 17.5769 10.7437 17.5769C11.8482 17.5769 12.7437 18.4724 12.7437 19.5769C12.7437 20.6815 11.8482 21.5769 10.7437 21.5769C9.63908 21.5769 8.74365 20.6815 8.74365 19.5769Z" fill="white"/>
<path d="M15.7437 19.5769C15.7437 18.4724 16.6391 17.5769 17.7437 17.5769C18.8482 17.5769 19.7437 18.4724 19.7437 19.5769C19.7437 20.6815 18.8482 21.5769 17.7437 21.5769C16.6391 21.5769 15.7437 20.6815 15.7437 19.5769Z" fill="white"/>
<path d="M19.2437 13.5769H13.2437C12.3008 13.5769 11.8294 13.5769 11.5365 13.2108C11.2437 12.8447 11.2437 12.2554 11.2437 11.0769C11.2437 9.89841 11.2437 9.30916 11.5365 8.94304C11.8294 8.57692 12.3008 8.57692 13.2437 8.57692H19.2437C20.1865 8.57692 20.6579 8.57692 20.9508 8.94304C21.2437 9.30916 21.2437 9.89841 21.2437 11.0769C21.2437 12.2554 21.2437 12.8447 20.9508 13.2108C20.6579 13.5769 20.1865 13.5769 19.2437 13.5769Z" fill="white"/>
<path d="M17.2437 7.57692H11.2437C10.3008 7.57692 9.82944 7.57692 9.53655 7.21081C9.24365 6.84469 9.24365 6.25543 9.24365 5.07692C9.24365 3.89841 9.24365 3.30916 9.53655 2.94304C9.82944 2.57692 10.3008 2.57692 11.2437 2.57692H17.2437C18.1865 2.57692 18.6579 2.57692 18.9508 2.94304C19.2437 3.30916 19.2437 3.89841 19.2437 5.07692C19.2437 6.25543 19.2437 6.84469 18.9508 7.21081C18.6579 7.57692 18.1865 7.57692 17.2437 7.57692Z" fill="white"/>
</svg>
