<svg width="23" height="23" viewBox="0 0 23 23" fill="none" xmlns="http://www.w3.org/2000/svg">
<path fill-rule="evenodd" clip-rule="evenodd" d="M12.0977 2.0478C11.4138 2.0478 10.7545 2.33485 8.8731 3.22613L5.96443 4.60407C5.13652 4.99628 4.61784 5.24476 4.29273 5.45966C4.61784 5.67456 5.13652 5.92304 5.96443 6.31525L7.06158 6.83502L14.8702 3.01264C13.3292 2.28832 12.7238 2.0478 12.0977 2.0478ZM17.1338 4.08431L9.32525 7.90669C10.8662 8.63101 11.4717 8.87153 12.0977 8.87153C12.7816 8.87153 13.4409 8.58448 15.3223 7.6932L18.231 6.31526C19.0589 5.92304 19.5776 5.67456 19.9027 5.45966C19.5776 5.24476 19.0589 4.99628 18.231 4.60407L17.1338 4.08431ZM8.20768 1.37539C9.80555 0.61746 10.9003 0.0981598 12.0977 0.0981598C13.2951 0.0981598 14.3899 0.61746 15.9877 1.37539C16.0542 1.4069 16.1215 1.43883 16.1897 1.47116L19.1659 2.88108C19.9061 3.23164 20.5587 3.54074 21.0178 3.84436C21.4775 4.14836 22.0548 4.64696 22.0548 5.45966C22.0548 6.27237 21.4775 6.77097 21.0178 7.07497C20.5587 7.37859 19.9061 7.68769 19.1659 8.03825L16.1897 9.44817C16.1215 9.4805 16.0542 9.51243 15.9877 9.54395C14.3899 10.3019 13.2951 10.8212 12.0977 10.8212C10.9003 10.8212 9.80555 10.3019 8.20769 9.54395C8.14124 9.51243 8.07392 9.4805 8.00569 9.44817L5.09702 8.07023C5.07443 8.05953 5.05192 8.04886 5.02949 8.03824C4.28933 7.68768 3.63674 7.37859 3.1776 7.07497C2.7179 6.77097 2.14062 6.27237 2.14062 5.45966C2.14062 4.64696 2.7179 4.14835 3.1776 3.84436C3.63674 3.54074 4.28933 3.23165 5.02949 2.88109C5.05192 2.87046 5.07443 2.8598 5.09702 2.8491L8.00569 1.47116C8.07392 1.43883 8.14123 1.4069 8.20768 1.37539Z" fill="white"/>
<path fill-rule="evenodd" clip-rule="evenodd" d="M0.0981445 12.0977C0.0981445 11.5337 0.555369 11.0765 1.11938 11.0765H4.1831C4.74712 11.0765 5.20434 11.5337 5.20434 12.0977C5.20434 12.6617 4.74712 13.119 4.1831 13.119H1.11938C0.555369 13.119 0.0981445 12.6617 0.0981445 12.0977ZM0.0981445 15.1614C0.0981445 14.5974 0.555369 14.1402 1.11938 14.1402H4.1831C4.74712 14.1402 5.20434 14.5974 5.20434 15.1614C5.20434 15.7255 4.74712 16.1827 4.1831 16.1827H1.11938C0.555369 16.1827 0.0981445 15.7255 0.0981445 15.1614ZM0.0981445 18.2252C0.0981445 17.6611 0.555369 17.2039 1.11938 17.2039H4.1831C4.74712 17.2039 5.20434 17.6611 5.20434 18.2252C5.20434 18.7892 4.74712 19.2464 4.1831 19.2464H1.11938C0.555369 19.2464 0.0981445 18.7892 0.0981445 18.2252Z" fill="white"/>
<path d="M8.72162 21.0481C8.09559 20.7836 7.48925 20.5275 6.92017 20.2808C6.80837 20.2324 6.7362 20.1221 6.7362 20.0002V12.0986C6.7362 10.6886 5.59314 9.54551 4.1831 9.54551H2.447C2.27779 9.54551 2.14062 9.40834 2.14062 9.23913V5.46055C2.14062 5.34943 2.16429 5.24383 2.20685 5.14853C2.26294 5.02294 2.41796 4.99519 2.5417 5.05527L5.69596 6.5867L8.67921 8.03026C10.5867 8.95329 11.324 9.2902 12.0977 9.2902C12.8714 9.2902 13.6087 8.95329 15.5162 8.03026L18.4994 6.5867L21.6537 5.05527C21.7774 4.99519 21.9325 5.02294 21.9886 5.14853C22.0311 5.24383 22.0548 5.34943 22.0548 5.46055V16.3483C22.0548 17.4925 21.2201 18.2534 20.1927 18.8699C19.1527 19.494 17.407 20.2314 15.4738 21.0481C14.0246 21.6607 13.0904 22.0557 12.0977 22.0557C11.105 22.0557 10.1708 21.6607 8.72162 21.0481Z" fill="white"/>
</svg>
