<svg width="21" height="22" viewBox="0 0 21 22" fill="none" xmlns="http://www.w3.org/2000/svg">
<path fill-rule="evenodd" clip-rule="evenodd" d="M9.33454 0.480684C9.3596 0.4807 9.38497 0.480717 9.41067 0.480717C9.43637 0.480717 9.46174 0.4807 9.48679 0.480684C9.88218 0.480423 10.1993 0.480215 10.4874 0.546521C11.1506 0.699153 11.7351 1.11277 12.0613 1.71237C12.2038 1.97433 12.2738 2.27871 12.352 2.61868C12.3577 2.64338 12.3634 2.66827 12.3692 2.69334L12.4525 3.05346C12.4552 3.06507 12.4579 3.07665 12.4606 3.0882C12.5387 3.42611 12.6104 3.73573 12.6418 3.99552C12.6755 4.27446 12.6778 4.59677 12.5317 4.91879C12.3824 5.24787 12.1341 5.51675 11.831 5.70086C11.5458 5.87404 11.2368 5.93119 10.9481 5.95649C10.6712 5.98075 10.3305 5.98074 9.94007 5.98072H8.88127C8.49087 5.98074 8.15009 5.98075 7.87328 5.95649C7.58453 5.93119 7.2755 5.87404 6.99035 5.70086C6.68722 5.51675 6.43891 5.24787 6.28963 4.91879C6.14354 4.59677 6.14584 4.27446 6.17955 3.99552C6.21094 3.73573 6.28259 3.42611 6.36078 3.08819C6.36345 3.07665 6.36613 3.06507 6.36882 3.05346L6.45212 2.69334C6.45792 2.66826 6.46364 2.64338 6.46932 2.61868C6.54753 2.27871 6.61755 1.97433 6.76005 1.71237C7.08622 1.11277 7.67072 0.699153 8.3339 0.546521C8.622 0.480215 8.93915 0.480423 9.33454 0.480684ZM9.41067 1.98072C8.90099 1.98072 8.76976 1.98542 8.67033 2.00831C8.3882 2.07324 8.18083 2.23958 8.07772 2.42914C8.04629 2.48691 8.0198 2.57192 7.91353 3.03137L7.83023 3.39149C7.74135 3.77574 7.68925 4.00554 7.66872 4.17545C7.65923 4.25397 7.6602 4.29462 7.66153 4.311C7.68019 4.34582 7.71402 4.3854 7.76902 4.4188L7.77036 4.41951C7.77136 4.42002 7.77323 4.4209 7.77617 4.42211C7.78204 4.42451 7.79291 4.42846 7.81067 4.43312C7.84806 4.44291 7.90783 4.45377 8.00423 4.46222C8.20757 4.48004 8.48172 4.48072 8.91256 4.48072H9.90877C10.3396 4.48072 10.6138 4.48004 10.8171 4.46222C10.9135 4.45377 10.9733 4.44291 11.0107 4.43312C11.0284 4.42846 11.0393 4.42451 11.0452 4.42211C11.0481 4.4209 11.05 4.42002 11.051 4.41951L11.052 4.41896C11.107 4.38556 11.1411 4.34582 11.1598 4.311C11.1611 4.29462 11.1621 4.25397 11.1526 4.17545C11.1321 4.00554 11.08 3.77574 10.9911 3.39149L10.9078 3.03137C10.8015 2.57192 10.775 2.48691 10.7436 2.42914C10.6405 2.23958 10.4331 2.07324 10.151 2.00831C10.0516 1.98542 9.92035 1.98072 9.41067 1.98072ZM11.1587 4.31992C11.1587 4.31989 11.1588 4.31915 11.1591 4.3178L11.1587 4.31992ZM7.66264 4.31992C7.66262 4.31995 7.66246 4.31928 7.66225 4.3178L7.66264 4.31992Z" fill="white"/>
<path d="M15.9106 12.4807C18.534 12.4807 20.6606 14.6073 20.6606 17.2307C20.6606 19.854 18.534 21.9807 15.9106 21.9807C13.2873 21.9807 11.1606 19.854 11.1606 17.2307C11.1606 14.6073 13.2873 12.4807 15.9106 12.4807ZM17.9058 15.9846C17.7094 15.62 17.2548 15.4836 16.8901 15.6799C16.2323 16.034 15.6693 16.7806 15.3384 17.2814C15.2287 17.1937 15.0453 17.0647 14.9019 16.9963C14.528 16.8179 14.0802 16.9769 13.9019 17.3508C13.7253 17.7211 13.8792 18.1643 14.2456 18.3459C14.251 18.3493 14.3512 18.4117 14.4087 18.4582C14.527 18.554 14.6849 18.7112 14.8218 18.9435C14.9624 19.1819 15.223 19.3235 15.4995 19.3117C15.7761 19.2998 16.0242 19.1355 16.144 18.8859C16.1655 18.8437 16.2272 18.7234 16.269 18.6467C16.3533 18.4922 16.4741 18.282 16.6216 18.0588C16.9393 17.5779 17.2976 17.1635 17.6011 17.0002C17.9656 16.8038 18.1021 16.3492 17.9058 15.9846Z" fill="white"/>
<path d="M9.89404 18.9279C10.2331 20.1313 10.9241 21.1875 11.8481 21.9787C11.5652 21.9796 11.2699 21.9797 10.9634 21.9797H7.85791C6.25314 21.9797 4.9756 21.9792 3.9751 21.8517C2.94629 21.7207 2.09667 21.4434 1.42041 20.8029C0.738387 20.1568 0.437441 19.3356 0.296387 18.342C0.160779 17.3864 0.160624 16.1699 0.160645 14.6564V9.80292C0.160624 8.28922 0.160767 7.07301 0.296387 6.11737C0.437417 5.12361 0.738299 4.30264 1.42041 3.65643C2.02394 3.08472 2.76598 2.80181 3.65186 2.65448C4.51939 2.51022 5.59352 2.48555 6.90771 2.48065C7.32188 2.47911 7.65903 2.81357 7.66064 3.22772L6.91357 5.0285H11.9077L11.1606 3.22772C11.1623 2.81357 11.4994 2.47911 11.9136 2.48065C13.2278 2.48555 14.3019 2.51022 15.1694 2.65448C16.0553 2.80181 16.7973 3.08472 17.4009 3.65643C18.083 4.30264 18.3839 5.12361 18.5249 6.11737C18.6605 7.07301 18.6607 8.28922 18.6606 9.80292V11.6154C17.8308 11.2082 16.8974 10.9797 15.9106 10.9797C14.3233 10.9797 12.8743 11.5711 11.772 12.5461C11.982 12.1535 12.1011 11.7047 12.1011 11.2307C12.1011 9.73091 10.9122 8.48065 9.40381 8.48065C7.89551 8.48079 6.70654 9.73099 6.70654 11.2307C6.70654 12.7303 7.89551 13.9805 9.40381 13.9807C9.8767 13.9807 10.3184 13.8577 10.7017 13.6428L10.8628 13.5451C10.5352 13.9932 10.264 14.4855 10.064 15.0129C8.45929 14.8406 6.78658 15.3527 5.59229 16.4865C5.29416 16.7697 5.16064 17.1519 5.16064 17.5129C5.16081 18.3234 5.81786 18.9805 6.62842 18.9807H9.90869C9.9036 18.9631 9.89899 18.9455 9.89404 18.9279ZM9.81006 18.593C9.78802 18.4938 9.76775 18.394 9.75049 18.2932C9.76778 18.394 9.788 18.4939 9.81006 18.593ZM9.69873 17.923C9.68712 17.8177 9.67769 17.7116 9.67139 17.6047C9.67772 17.7115 9.68709 17.8177 9.69873 17.923ZM9.66064 17.2297C9.66065 17.3384 9.66394 17.4465 9.66943 17.5539C9.66398 17.4468 9.66064 17.3391 9.66064 17.2307C9.66064 17.1315 9.66291 17.0328 9.66748 16.9348C9.66296 17.0323 9.66064 17.131 9.66064 17.2297ZM9.68311 16.715C9.68561 16.6844 9.687 16.6537 9.68994 16.6232C9.68701 16.6537 9.6856 16.6844 9.68311 16.715ZM9.70752 16.4719C9.71325 16.4245 9.71832 16.3772 9.7251 16.3303C9.71833 16.3773 9.71324 16.4245 9.70752 16.4719ZM9.75049 16.173C9.75807 16.1286 9.76639 16.0844 9.7749 16.0402C9.7664 16.0844 9.75806 16.1286 9.75049 16.173ZM9.81104 15.8635C9.81928 15.8265 9.8285 15.7898 9.8374 15.7531C9.82851 15.7898 9.81928 15.8265 9.81104 15.8635ZM9.88428 15.5705C9.89291 15.5391 9.90251 15.508 9.91162 15.4767C9.90251 15.508 9.89291 15.5391 9.88428 15.5705ZM9.96338 15.3039C9.97751 15.2603 9.99325 15.2172 10.0083 15.174C9.99325 15.2172 9.9775 15.2602 9.96338 15.3039ZM11.5181 12.7834C11.5277 12.7738 11.5376 12.7645 11.5474 12.7551C11.5376 12.7646 11.5277 12.7738 11.5181 12.7834ZM9.89404 18.9279C9.86782 18.8348 9.84471 18.7405 9.82275 18.6457C9.84473 18.7405 9.8678 18.8348 9.89404 18.9279ZM9.74268 18.2424C9.72763 18.1499 9.71456 18.0568 9.70361 17.9631C9.71458 18.0568 9.72761 18.1499 9.74268 18.2424Z" fill="white"/>
</svg>
