<svg width="20" height="21" viewBox="0 0 20 21" fill="none" xmlns="http://www.w3.org/2000/svg">
<path d="M3.14786 10.1059C2.35784 8.72831 1.97638 7.60346 1.74637 6.46323C1.40619 4.77687 2.18468 3.12956 3.47432 2.07845C4.01938 1.63421 4.6442 1.78599 4.96651 2.36422L5.69416 3.66965C6.27091 4.70436 6.55929 5.22172 6.50209 5.77022C6.44489 6.31871 6.05598 6.76544 5.27815 7.65889L3.14786 10.1059ZM3.14786 10.1059C4.74693 12.8941 7.25637 15.4049 10.0479 17.0059M10.0479 17.0059C11.4254 17.7959 12.5503 18.1773 13.6905 18.4074C15.3769 18.7475 17.0242 17.969 18.0753 16.6794C18.5195 16.1344 18.3677 15.5095 17.7895 15.1872L16.4841 14.4596C15.4494 13.8828 14.932 13.5944 14.3835 13.6516C13.835 13.7088 13.3883 14.0978 12.4948 14.8756L10.0479 17.0059Z" stroke="#ED1C24" stroke-width="1.5" stroke-linejoin="round"/>
</svg>
