<svg width="14" height="18" viewBox="0 0 14 18" fill="none" xmlns="http://www.w3.org/2000/svg">
<path fill-rule="evenodd" clip-rule="evenodd" d="M7 0.937744C3.37032 0.937744 0.4375 3.90829 0.4375 7.56074C0.4375 9.65683 1.27332 11.2919 2.87694 12.713C3.92025 13.6375 5.79441 15.6032 6.51971 16.7929C6.62019 16.9578 6.79817 17.0596 6.99118 17.0626C7.18419 17.0656 7.36528 16.9694 7.47087 16.8079C8.24306 15.6262 10.0898 13.6286 11.1231 12.713C12.7267 11.2919 13.5625 9.65683 13.5625 7.56074C13.5625 3.90829 10.6297 0.937744 7 0.937744ZM7.02637 10.1252C8.47611 10.1252 9.65137 8.94999 9.65137 7.50024C9.65137 6.0505 8.47611 4.87524 7.02637 4.87524C5.57662 4.87524 4.40137 6.0505 4.40137 7.50024C4.40137 8.94999 5.57662 10.1252 7.02637 10.1252Z" fill="white"/>
</svg>
