<svg width="137" height="25" viewBox="0 0 137 25" fill="none" xmlns="http://www.w3.org/2000/svg">
<path d="M12.0245 2.2604C12.1741 1.79975 12.8259 1.79975 12.9755 2.2604L15.0819 8.74318C15.1488 8.94919 15.3408 9.08867 15.5574 9.08867H22.3738C22.8582 9.08867 23.0596 9.70848 22.6677 9.99318L17.1531 13.9998C16.9779 14.1271 16.9046 14.3528 16.9715 14.5588L19.0779 21.0416C19.2276 21.5022 18.7003 21.8853 18.3085 21.6006L12.7939 17.594C12.6186 17.4667 12.3814 17.4667 12.2061 17.594L6.69153 21.6006C6.29967 21.8853 5.77243 21.5022 5.92211 21.0416L8.02849 14.5588C8.09543 14.3528 8.0221 14.1271 7.84685 13.9998L2.33227 9.99318C1.94041 9.70848 2.1418 9.08867 2.62616 9.08867H9.44256C9.65917 9.08867 9.85115 8.94919 9.91809 8.74318L12.0245 2.2604Z" fill="#FC960A"/>
<path d="M40.0245 2.2604C40.1741 1.79975 40.8259 1.79975 40.9755 2.2604L43.0819 8.74318C43.1488 8.94919 43.3408 9.08867 43.5574 9.08867H50.3738C50.8582 9.08867 51.0596 9.70848 50.6677 9.99318L45.1531 13.9998C44.9779 14.1271 44.9046 14.3528 44.9715 14.5588L47.0779 21.0416C47.2276 21.5022 46.7003 21.8853 46.3085 21.6006L40.7939 17.594C40.6186 17.4667 40.3814 17.4667 40.2061 17.594L34.6915 21.6006C34.2997 21.8853 33.7724 21.5022 33.9221 21.0416L36.0285 14.5588C36.0954 14.3528 36.0221 14.1271 35.8469 13.9998L30.3323 9.99318C29.9404 9.70848 30.1418 9.08867 30.6262 9.08867H37.4426C37.6592 9.08867 37.8512 8.94919 37.9181 8.74318L40.0245 2.2604Z" fill="#FC960A"/>
<path d="M68.0245 2.2604C68.1741 1.79975 68.8259 1.79975 68.9755 2.2604L71.0819 8.74318C71.1488 8.94919 71.3408 9.08867 71.5574 9.08867H78.3738C78.8582 9.08867 79.0596 9.70848 78.6677 9.99318L73.1531 13.9998C72.9779 14.1271 72.9046 14.3528 72.9715 14.5588L75.0779 21.0416C75.2276 21.5022 74.7003 21.8853 74.3085 21.6006L68.7939 17.594C68.6186 17.4667 68.3814 17.4667 68.2061 17.594L62.6915 21.6006C62.2997 21.8853 61.7724 21.5022 61.9221 21.0416L64.0285 14.5588C64.0954 14.3528 64.0221 14.1271 63.8469 13.9998L58.3323 9.99318C57.9404 9.70848 58.1418 9.08867 58.6262 9.08867H65.4426C65.6592 9.08867 65.8512 8.94919 65.9181 8.74318L68.0245 2.2604Z" fill="#FC960A"/>
<path d="M96.0245 2.2604C96.1741 1.79975 96.8259 1.79975 96.9755 2.2604L99.0819 8.74318C99.1488 8.94919 99.3408 9.08867 99.5574 9.08867H106.374C106.858 9.08867 107.06 9.70848 106.668 9.99318L101.153 13.9998C100.978 14.1271 100.905 14.3528 100.972 14.5588L103.078 21.0416C103.228 21.5022 102.7 21.8853 102.308 21.6006L96.7939 17.594C96.6186 17.4667 96.3814 17.4667 96.2061 17.594L90.6915 21.6006C90.2997 21.8853 89.7724 21.5022 89.9221 21.0416L92.0285 14.5588C92.0954 14.3528 92.0221 14.1271 91.8469 13.9998L86.3323 9.99318C85.9404 9.70848 86.1418 9.08867 86.6262 9.08867H93.4426C93.6592 9.08867 93.8512 8.94919 93.9181 8.74318L96.0245 2.2604Z" fill="#FC960A"/>
<path d="M124.024 2.2604C124.174 1.79975 124.826 1.79975 124.976 2.2604L127.082 8.74318C127.149 8.94919 127.341 9.08867 127.557 9.08867H134.374C134.858 9.08867 135.06 9.70848 134.668 9.99318L129.153 13.9998C128.978 14.1271 128.905 14.3528 128.972 14.5588L131.078 21.0416C131.228 21.5022 130.7 21.8853 130.308 21.6006L124.794 17.594C124.619 17.4667 124.381 17.4667 124.206 17.594L118.692 21.6006C118.3 21.8853 117.772 21.5022 117.922 21.0416L120.028 14.5588C120.095 14.3528 120.022 14.1271 119.847 13.9998L114.332 9.99318C113.94 9.70848 114.142 9.08867 114.626 9.08867H121.443C121.659 9.08867 121.851 8.94919 121.918 8.74318L124.024 2.2604Z" fill="#FC960A"/>
</svg>
